<svg width="1177" height="116" viewBox="0 0 1177 116" fill="none" xmlns="http://www.w3.org/2000/svg">
<path d="M154.501 73.5996L152.601 72.9753L152.597 72.9876L152.593 73L154.501 73.5996ZM148.163 86.9199L149.803 88.0648L149.808 88.0576L149.813 88.0504L148.163 86.9199ZM138.818 96.6953L137.607 95.103L137.6 95.1089L137.592 95.1149L138.818 96.6953ZM127.861 103.463L128.686 105.285L128.7 105.278L128.714 105.272L127.861 103.463ZM116.259 107.223L115.867 105.261L115.86 105.263L116.259 107.223ZM94.0226 108.404V106.404H92.0226V108.404H94.0226ZM94.0226 159V161H96.0226V159H94.0226ZM65.8781 159H63.8781V161H65.8781V159ZM65.8781 108.404H67.8781V106.404H65.8781V108.404ZM43.6418 107.223L43.2426 109.182L43.2496 109.184L43.6418 107.223ZM32.0402 103.463L31.187 105.272L31.2074 105.281L31.2279 105.291L32.0402 103.463ZM21.0832 96.6953L19.8575 98.2758L21.0832 96.6953ZM11.7375 86.9199L10.0876 88.0504L10.0997 88.068L10.1121 88.0853L11.7375 86.9199ZM5.29218 73.5996L3.38178 74.1916L3.38681 74.2078L3.39211 74.2239L5.29218 73.5996ZM2.92889 4.95703V2.95703H0.928894V4.95703H2.92889ZM30.8586 4.95703H32.8586V2.95703H30.8586V4.95703ZM32.5773 66.4023L30.7142 67.1294L30.7172 67.1373L30.7204 67.1451L32.5773 66.4023ZM44.9308 78.6484L44.2038 80.5116L44.2308 80.5222L44.2582 80.5319L44.9308 78.6484ZM105.302 80.2598V82.2598H105.463L105.622 82.234L105.302 80.2598ZM113.466 78.6484L113.916 80.5972L113.939 80.5918L113.963 80.5858L113.466 78.6484ZM129.042 4.95703V2.95703H127.042V4.95703H129.042ZM156.972 4.95703H158.972V2.95703H156.972V4.95703ZM156.972 56.5195H154.972C154.972 62.7238 154.17 68.2006 152.601 72.9753L154.501 73.5996L156.401 74.2239C158.127 68.9726 158.972 63.0627 158.972 56.5195H156.972ZM154.501 73.5996L152.593 73C151.07 77.8468 149.039 82.1038 146.513 85.7895L148.163 86.9199L149.813 88.0504C152.587 84.0016 154.781 79.3785 156.409 74.1993L154.501 73.5996ZM148.163 86.9199L146.523 85.7751C143.989 89.4051 141.018 92.5112 137.607 95.103L138.818 96.6953L140.028 98.2876C143.779 95.4367 147.038 92.0259 149.803 88.0648L148.163 86.9199ZM138.818 96.6953L137.592 95.1149C134.192 97.7519 130.663 99.9295 127.007 101.654L127.861 103.463L128.714 105.272C132.649 103.416 136.425 101.081 140.043 98.2758L138.818 96.6953ZM127.861 103.463L127.036 101.641C123.373 103.299 119.651 104.505 115.867 105.261L116.259 107.223L116.651 109.184C120.745 108.365 124.757 107.064 128.686 105.285L127.861 103.463ZM116.259 107.223L115.86 105.263C112.105 106.028 108.587 106.404 105.302 106.404V108.404V110.404C108.892 110.404 112.678 109.993 116.658 109.182L116.259 107.223ZM105.302 108.404V106.404H94.0226V108.404V110.404H105.302V108.404ZM94.0226 108.404H92.0226V159H94.0226H96.0226V108.404H94.0226ZM94.0226 159V157H65.8781V159V161H94.0226V159ZM65.8781 159H67.8781V108.404H65.8781H63.8781V159H65.8781ZM65.8781 108.404V106.404H54.7062V108.404V110.404H65.8781V108.404ZM54.7062 108.404V106.404C51.4203 106.404 47.8647 106.028 44.034 105.261L43.6418 107.223L43.2496 109.184C47.2965 109.993 51.1172 110.404 54.7062 110.404V108.404ZM43.6418 107.223L44.041 105.263C40.3257 104.506 36.5967 103.299 32.8525 101.635L32.0402 103.463L31.2279 105.291C35.2181 107.064 39.2235 108.364 43.2426 109.182L43.6418 107.223ZM32.0402 103.463L32.8935 101.654C29.2374 99.9295 25.7092 97.7519 22.3088 95.1149L21.0832 96.6953L19.8575 98.2758C23.4754 101.081 27.2519 103.416 31.187 105.272L32.0402 103.463ZM21.0832 96.6953L22.3088 95.1149C18.96 92.5178 15.9776 89.4013 13.3629 85.7545L11.7375 86.9199L10.1121 88.0853C12.9401 92.0297 16.1881 95.4301 19.8575 98.2758L21.0832 96.6953ZM11.7375 86.9199L13.3874 85.7895C10.857 82.0965 8.78762 77.8308 7.19224 72.9753L5.29218 73.5996L3.39211 74.2239C5.091 79.3944 7.31852 84.009 10.0876 88.0504L11.7375 86.9199ZM5.29218 73.5996L7.20257 73.0077C5.69619 68.1462 4.92889 62.6567 4.92889 56.5195H2.92889H0.928894C0.928894 62.9865 1.73712 68.8838 3.38178 74.1916L5.29218 73.5996ZM2.92889 56.5195H4.92889V4.95703H2.92889H0.928894V56.5195H2.92889ZM2.92889 4.95703V6.95703H30.8586V4.95703V2.95703H2.92889V4.95703ZM30.8586 4.95703H28.8586V56.5195H30.8586H32.8586V4.95703H30.8586ZM30.8586 56.5195H28.8586C28.8586 60.3817 29.4648 63.9278 30.7142 67.1294L32.5773 66.4023L34.4405 65.6753C33.3982 63.0045 32.8586 59.9621 32.8586 56.5195H30.8586ZM32.5773 66.4023L30.7204 67.1451C31.9616 70.2483 33.7192 72.9507 35.9971 75.2287L37.4113 73.8145L38.8255 72.4002C36.9498 70.5245 35.4847 68.2856 34.4343 65.6596L32.5773 66.4023ZM37.4113 73.8145L35.9971 75.2287C38.2835 77.515 41.029 79.2727 44.2038 80.5116L44.9308 78.6484L45.6579 76.7853C42.9602 75.7325 40.6928 74.2675 38.8255 72.4002L37.4113 73.8145ZM44.9308 78.6484L44.2582 80.5319C47.5104 81.6934 51.0719 82.2598 54.9211 82.2598V80.2598V78.2598C51.4655 78.2598 48.3669 77.7519 45.6035 76.765L44.9308 78.6484ZM54.9211 80.2598V82.2598H105.302V80.2598V78.2598H54.9211V80.2598ZM105.302 80.2598L105.622 82.234C108.318 81.7968 111.083 81.251 113.916 80.5972L113.466 78.6484L113.016 76.6997C110.263 77.3349 107.585 77.8634 104.982 78.2856L105.302 80.2598ZM113.466 78.6484L113.963 80.5858C116.991 79.8092 119.762 78.5231 122.26 76.7275L121.093 75.1035L119.926 73.4795C117.841 74.9782 115.526 76.0554 112.969 76.7111L113.466 78.6484ZM121.093 75.1035L122.26 76.7275C124.85 74.8661 126.942 72.3114 128.566 69.1403L126.786 68.2285L125.006 67.3168C123.623 70.018 121.919 72.0467 119.926 73.4795L121.093 75.1035ZM126.786 68.2285L128.566 69.1403C130.267 65.8196 131.042 61.5671 131.042 56.5195H129.042H127.042C127.042 61.2116 126.313 64.765 125.006 67.3168L126.786 68.2285ZM129.042 56.5195H131.042V4.95703H129.042H127.042V56.5195H129.042ZM129.042 4.95703V6.95703H156.972V4.95703V2.95703H129.042V4.95703ZM156.972 4.95703H154.972V56.5195H156.972H158.972V4.95703H156.972ZM305.107 156.422L305.855 158.276L305.864 158.273L305.107 156.422ZM216.054 156.422L215.297 158.273L215.304 158.276L215.311 158.279L216.054 156.422ZM182.109 122.584L180.257 123.341L180.26 123.348L180.263 123.356L182.109 122.584ZM182.109 41.4805L180.261 40.7148L180.257 40.7232L182.109 41.4805ZM195.644 21.0703L197.049 22.4934L197.058 22.4845L195.644 21.0703ZM305.107 7.64258L304.343 9.49124L304.349 9.49367L305.107 7.64258ZM325.517 21.0703L324.103 22.4846L324.111 22.4934L325.517 21.0703ZM338.945 41.4805L337.091 42.2319L337.093 42.2377L338.945 41.4805ZM313.163 52.3301L311.294 53.0421L311.301 53.0601L311.308 53.078L313.163 52.3301ZM305.751 40.8359L304.321 42.2342L304.337 42.2502L304.353 42.266L305.751 40.8359ZM294.257 33.4238L293.509 35.2787L293.527 35.2859L293.545 35.2928L294.257 33.4238ZM226.796 33.4238L227.518 35.289L227.526 35.2859L227.534 35.2828L226.796 33.4238ZM215.302 40.8359L216.7 42.266L216.708 42.2581L216.716 42.2502L215.302 40.8359ZM207.782 52.3301L205.923 51.5924L205.92 51.6002L205.917 51.6081L207.782 52.3301ZM207.782 111.734L205.913 112.446L205.92 112.464L205.928 112.482L207.782 111.734ZM215.302 123.229L213.888 124.643L213.896 124.651L213.904 124.659L215.302 123.229ZM226.796 130.641L226.048 132.496L226.066 132.503L226.084 132.51L226.796 130.641ZM294.15 130.641L294.872 132.506L294.879 132.503L294.887 132.5L294.15 130.641ZM305.751 123.229L307.149 124.659L307.157 124.651L307.165 124.643L305.751 123.229ZM313.163 111.734L311.304 110.997L311.301 111.005L311.298 111.012L313.163 111.734ZM343.779 96.6953H341.779C341.779 105.844 340.208 114.213 337.093 121.827L338.945 122.584L340.796 123.341C344.126 115.2 345.779 106.31 345.779 96.6953H343.779ZM338.945 122.584L337.093 121.827C333.966 129.471 329.635 136.048 324.103 141.58L325.517 142.994L326.931 144.408C332.857 138.482 337.478 131.452 340.796 123.341L338.945 122.584ZM325.517 142.994L324.103 141.58C318.571 147.112 311.994 151.444 304.349 154.571L305.107 156.422L305.864 158.273C313.975 154.955 321.005 150.335 326.931 144.408L325.517 142.994ZM305.107 156.422L304.358 154.567C296.812 157.613 288.547 159.148 279.54 159.148V161.148V163.148C289.01 163.148 297.789 161.533 305.855 158.276L305.107 156.422ZM279.54 161.148V159.148H241.728V161.148V163.148H279.54V161.148ZM241.728 161.148V159.148C232.721 159.148 224.418 157.613 216.797 154.565L216.054 156.422L215.311 158.279C223.445 161.532 232.258 163.148 241.728 163.148V161.148ZM216.054 156.422L216.811 154.571C209.167 151.444 202.59 147.112 197.058 141.58L195.644 142.994L194.23 144.408C200.156 150.335 207.186 154.955 215.297 158.273L216.054 156.422ZM195.644 142.994L197.058 141.58C191.523 136.045 187.153 129.463 183.954 121.812L182.109 122.584L180.263 123.356C183.653 131.46 188.306 138.485 194.23 144.408L195.644 142.994ZM182.109 122.584L183.96 121.827C180.845 114.213 179.275 105.844 179.275 96.6953H177.275H175.275C175.275 106.31 176.927 115.2 180.257 123.341L182.109 122.584ZM177.275 96.6953H179.275V67.2617H177.275H175.275V96.6953H177.275ZM177.275 67.2617H179.275C179.275 58.187 180.844 49.8533 183.96 42.2377L182.109 41.4805L180.257 40.7232C176.928 48.8628 175.275 57.7166 175.275 67.2617H177.275ZM182.109 41.4805L183.956 42.2462C187.155 34.5262 191.522 27.9509 197.049 22.4934L195.644 21.0703L194.238 19.6472C188.307 25.5048 183.65 32.5363 180.261 40.7148L182.109 41.4805ZM195.644 21.0703L197.058 22.4845C202.59 16.9526 209.167 12.6209 216.811 9.49367L216.054 7.64258L215.297 5.79148C207.186 9.10954 200.156 13.7297 194.23 19.6561L195.644 21.0703ZM216.054 7.64258L216.811 9.49367C224.429 6.37746 232.727 4.80859 241.728 4.80859V2.80859V0.808594C232.252 0.808594 223.434 2.46238 215.297 5.79148L216.054 7.64258ZM241.728 2.80859V4.80859H279.54V2.80859V0.808594H241.728V2.80859ZM279.54 2.80859V4.80859C288.541 4.80859 296.801 6.37752 304.343 9.49123L305.107 7.64258L305.87 5.79393C297.8 2.46232 289.016 0.808594 279.54 0.808594V2.80859ZM305.107 7.64258L304.349 9.49367C311.994 12.6209 318.571 16.9526 324.103 22.4845L325.517 21.0703L326.931 19.6561C321.005 13.7297 313.975 9.10954 305.864 5.79148L305.107 7.64258ZM325.517 21.0703L324.111 22.4934C329.635 27.9476 333.964 34.518 337.091 42.2319L338.945 41.4805L340.798 40.7291C337.48 32.5445 332.857 25.5081 326.922 19.6472L325.517 21.0703ZM338.945 41.4805L337.093 42.2377C340.209 49.8533 341.779 58.187 341.779 67.2617H343.779H345.779C345.779 57.7166 344.125 48.8628 340.796 40.7232L338.945 41.4805ZM343.779 67.2617H341.779V96.6953H343.779H345.779V67.2617H343.779ZM315.849 67.2617H317.849C317.849 61.5296 316.918 56.2932 315.018 51.5821L313.163 52.3301L311.308 53.078C312.989 57.2471 313.849 61.9652 313.849 67.2617H315.849ZM313.163 52.3301L315.032 51.6181C313.218 46.8554 310.594 42.7736 307.149 39.4059L305.751 40.8359L304.353 42.266C307.354 45.2004 309.671 48.7813 311.294 53.0421L313.163 52.3301ZM305.751 40.8359L307.181 39.4377C303.814 35.9935 299.732 33.3692 294.969 31.5549L294.257 33.4238L293.545 35.2928C297.806 36.9159 301.387 39.2331 304.321 42.2342L305.751 40.8359ZM294.257 33.4238L295.005 31.5689C290.3 29.6717 285.136 28.7383 279.54 28.7383V30.7383V32.7383C284.686 32.7383 289.334 33.5952 293.509 35.2787L294.257 33.4238ZM279.54 30.7383V28.7383H241.728V30.7383V32.7383H279.54V30.7383ZM241.728 30.7383V28.7383C236.063 28.7383 230.832 29.6707 226.058 31.5648L226.796 33.4238L227.534 35.2828C231.784 33.5962 236.507 32.7383 241.728 32.7383V30.7383ZM226.796 33.4238L226.074 31.5587C221.386 33.3733 217.316 35.9934 213.888 39.4217L215.302 40.8359L216.716 42.2502C219.733 39.2331 223.326 36.9118 227.518 35.289L226.796 33.4238ZM215.302 40.8359L213.904 39.4059C210.466 42.7676 207.809 46.8405 205.923 51.5924L207.782 52.3301L209.641 53.0678C211.336 48.7962 213.693 45.2063 216.7 42.266L215.302 40.8359ZM207.782 52.3301L205.917 51.6081C204.096 56.3118 203.204 61.539 203.204 67.2617H205.204H207.204C207.204 61.9558 208.031 57.2285 209.648 53.0521L207.782 52.3301ZM205.204 67.2617H203.204V96.6953H205.204H207.204V67.2617H205.204ZM205.204 96.6953H203.204C203.204 102.419 204.097 107.677 205.913 112.446L207.782 111.734L209.651 111.022C208.031 106.768 207.204 102.001 207.204 96.6953H205.204ZM207.782 111.734L205.928 112.482C207.813 117.159 210.465 121.22 213.888 124.643L215.302 123.229L216.716 121.814C213.693 118.791 211.332 115.19 209.637 110.986L207.782 111.734ZM215.302 123.229L213.904 124.659C217.325 128.004 221.381 130.614 226.048 132.496L226.796 130.641L227.544 128.786C223.331 127.087 219.724 124.756 216.7 121.799L215.302 123.229ZM226.796 130.641L226.084 132.51C230.85 134.325 236.072 135.219 241.728 135.219V133.219V131.219C236.498 131.219 231.765 130.393 227.508 128.772L226.796 130.641ZM241.728 133.219V135.219H279.325V133.219V131.219H241.728V133.219ZM279.325 133.219V135.219C284.98 135.219 290.171 134.325 294.872 132.506L294.15 130.641L293.428 128.775C289.248 130.393 284.556 131.219 279.325 131.219V133.219ZM294.15 130.641L294.887 132.5C299.626 130.619 303.723 128.009 307.149 124.659L305.751 123.229L304.353 121.799C301.334 124.75 297.696 127.081 293.412 128.782L294.15 130.641ZM305.751 123.229L307.165 124.643C310.594 121.214 313.214 117.144 315.028 112.456L313.163 111.734L311.298 111.012C309.675 115.205 307.354 118.797 304.337 121.814L305.751 123.229ZM313.163 111.734L315.022 112.472C316.918 107.696 317.849 102.428 317.849 96.6953H315.849H313.849C313.849 101.991 312.99 106.749 311.304 110.997L313.163 111.734ZM315.849 96.6953H317.849V67.2617H315.849H313.849V96.6953H315.849ZM502.436 96.0508V98.0508H504.436V96.0508H502.436ZM414.243 96.0508H412.243V98.0508H414.243V96.0508ZM414.243 67.9062V65.9062H412.243V67.9062H414.243ZM502.436 67.9062H504.436V65.9062H502.436V67.9062ZM515.005 159V161H517.005V159H515.005ZM388.784 150.299L387.521 151.849L387.536 151.862L387.552 151.874L388.784 150.299ZM379.009 138.16L377.23 139.075L377.238 139.09L377.246 139.105L379.009 138.16ZM379.116 9.03906L377.702 7.62485L377.682 7.64505L377.662 7.66582L379.116 9.03906ZM515.005 4.95703H517.005V2.95703H515.005V4.95703ZM515.005 32.8867V34.8867H517.005V32.8867H515.005ZM403.071 32.8867V30.8867H401.071V32.8867H403.071ZM515.005 131.07H517.005V129.07H515.005V131.07ZM502.436 96.0508V94.0508H414.243V96.0508V98.0508H502.436V96.0508ZM414.243 96.0508H416.243V67.9062H414.243H412.243V96.0508H414.243ZM414.243 67.9062V69.9062H502.436V67.9062V65.9062H414.243V67.9062ZM502.436 67.9062H500.436V96.0508H502.436H504.436V67.9062H502.436ZM515.005 159V157H414.243V159V161H515.005V159ZM414.243 159V157C410.608 157 406.577 156.36 402.136 155.042L401.567 156.959L400.998 158.876C405.724 160.279 410.144 161 414.243 161V159ZM401.567 156.959L402.136 155.042C397.804 153.756 393.766 151.655 390.016 148.723L388.784 150.299L387.552 151.874C391.679 155.101 396.163 157.441 400.998 158.876L401.567 156.959ZM388.784 150.299L390.047 148.748C386.409 145.784 383.312 141.952 380.771 137.215L379.009 138.16L377.246 139.105C380.005 144.251 383.425 148.512 387.521 151.849L388.784 150.299ZM379.009 138.16L380.787 137.245C378.39 132.584 377.141 126.793 377.141 119.791H375.141H373.141C373.141 127.255 374.471 133.71 377.23 139.075L379.009 138.16ZM375.141 119.791H377.141V19.0293H375.141H373.141V119.791H375.141ZM375.141 19.0293H377.141C377.141 17.3494 377.451 15.7856 378.062 14.32L376.216 13.5508L374.369 12.7816C373.548 14.7534 373.141 16.842 373.141 19.0293H375.141ZM376.216 13.5508L378.062 14.32C378.69 12.8133 379.527 11.5167 380.57 10.4123L379.116 9.03906L377.662 7.66582C376.27 9.13954 375.174 10.8507 374.369 12.7816L376.216 13.5508ZM379.116 9.03906L380.53 10.4533C381.631 9.35293 382.914 8.49527 384.397 7.8774L383.628 6.03125L382.858 4.1851C380.904 4.99952 379.18 6.14707 377.702 7.62485L379.116 9.03906ZM383.628 6.03125L384.397 7.8774C385.854 7.27042 387.452 6.95703 389.214 6.95703V4.95703V2.95703C386.965 2.95703 384.839 3.35979 382.858 4.1851L383.628 6.03125ZM389.214 4.95703V6.95703H515.005V4.95703V2.95703H389.214V4.95703ZM515.005 4.95703H513.005V32.8867H515.005H517.005V4.95703H515.005ZM515.005 32.8867V30.8867H403.071V32.8867V34.8867H515.005V32.8867ZM403.071 32.8867H401.071V119.791H403.071H405.071V32.8867H403.071ZM403.071 119.791H401.071C401.071 123.79 402.136 127.163 404.557 129.584L405.971 128.17L407.386 126.756C405.94 125.31 405.071 123.097 405.071 119.791H403.071ZM405.971 128.17L404.557 129.584C406.985 132.012 410.4 133.07 414.458 133.07V131.07V129.07C411.067 129.07 408.825 128.195 407.386 126.756L405.971 128.17ZM414.458 131.07V133.07H515.005V131.07V129.07H414.458V131.07ZM515.005 131.07H513.005V159H515.005H517.005V131.07H515.005ZM683.55 159V161H685.55V159H683.55ZM550.561 157.926L549.792 159.772L550.561 157.926ZM546.05 155.025L544.596 156.399L544.635 156.44L544.676 156.479L546.05 155.025ZM542.075 4.95703V2.95703H540.075V4.95703H542.075ZM570.005 4.95703H572.005V2.95703H570.005V4.95703ZM570.005 131.07H568.005V133.07H570.005V131.07ZM683.55 131.07H685.55V129.07H683.55V131.07ZM683.55 159V157H556.147V159V161H683.55V159ZM556.147 159V157C554.386 157 552.787 156.687 551.331 156.08L550.561 157.926L549.792 159.772C551.773 160.597 553.899 161 556.147 161V159ZM550.561 157.926L551.331 156.08C549.824 155.452 548.527 154.614 547.423 153.571L546.05 155.025L544.676 156.479C546.15 157.871 547.861 158.967 549.792 159.772L550.561 157.926ZM546.05 155.025L547.504 153.652C546.461 152.548 545.623 151.251 544.995 149.744L543.149 150.514L541.303 151.283C542.108 153.214 543.204 154.925 544.596 156.399L546.05 155.025ZM543.149 150.514L544.995 149.744C544.388 148.288 544.075 146.689 544.075 144.928H542.075H540.075C540.075 147.176 540.478 149.302 541.303 151.283L543.149 150.514ZM542.075 144.928H544.075V4.95703H542.075H540.075V144.928H542.075ZM542.075 4.95703V6.95703H570.005V4.95703V2.95703H542.075V4.95703ZM570.005 4.95703H568.005V131.07H570.005H572.005V4.95703H570.005ZM570.005 131.07V133.07H683.55V131.07V129.07H570.005V131.07ZM683.55 131.07H681.55V159H683.55H685.55V131.07H683.55ZM839.311 4.95703L841.107 5.83845L842.521 2.95703H839.311V4.95703ZM766.372 153.521L768.161 154.416L768.164 154.409L768.167 154.403L766.372 153.521ZM761.216 159L760.195 157.28L760.163 157.299L760.131 157.319L761.216 159ZM746.391 159L747.451 157.304L747.444 157.299L747.437 157.295L746.391 159ZM741.235 153.521L739.439 154.402L739.454 154.431L739.469 154.46L741.235 153.521ZM668.403 4.95703V2.95703H665.195L666.607 5.83741L668.403 4.95703ZM699.663 4.95703L701.46 4.08005L700.912 2.95703H699.663V4.95703ZM753.804 115.924L752.006 116.801L753.8 120.478L755.6 116.804L753.804 115.924ZM808.159 4.95703V2.95703H806.912L806.363 4.07724L808.159 4.95703ZM839.311 4.95703L837.516 4.07561L764.577 152.64L766.372 153.521L768.167 154.403L841.107 5.83845L839.311 4.95703ZM766.372 153.521L764.583 152.627C763.616 154.561 762.17 156.107 760.195 157.28L761.216 159L762.237 160.72C764.844 159.172 766.836 157.065 768.161 154.416L766.372 153.521ZM761.216 159L760.131 157.319C758.245 158.537 756.152 159.148 753.804 159.148V161.148V163.148C756.897 163.148 759.747 162.328 762.3 160.681L761.216 159ZM753.804 161.148V159.148C751.536 159.148 749.432 158.542 747.451 157.304L746.391 159L745.331 160.696C747.934 162.323 750.771 163.148 753.804 163.148V161.148ZM746.391 159L747.437 157.295C745.52 156.12 744.051 154.558 743.001 152.583L741.235 153.521L739.469 154.46C740.855 157.068 742.823 159.159 745.346 160.705L746.391 159ZM741.235 153.521L743.031 152.641L670.199 4.07666L668.403 4.95703L666.607 5.83741L739.439 154.402L741.235 153.521ZM668.403 4.95703V6.95703H699.663V4.95703V2.95703H668.403V4.95703ZM699.663 4.95703L697.865 5.83402L752.006 116.801L753.804 115.924L755.601 115.047L701.46 4.08005L699.663 4.95703ZM753.804 115.924L755.6 116.804L809.955 5.83682L808.159 4.95703L806.363 4.07724L752.007 115.044L753.804 115.924ZM808.159 4.95703V6.95703H839.311V4.95703V2.95703H808.159V4.95703ZM999.37 73.5996L997.47 72.9753L997.466 72.9876L997.462 73L999.37 73.5996ZM993.032 86.9199L994.672 88.0648L994.677 88.0576L994.682 88.0504L993.032 86.9199ZM983.686 96.6953L982.476 95.103L982.468 95.1089L982.461 95.1149L983.686 96.6953ZM972.729 103.463L973.554 105.285L973.568 105.278L973.583 105.272L972.729 103.463ZM961.128 107.223L960.736 105.261L960.729 105.263L961.128 107.223ZM938.891 108.404V106.404H936.891V108.404H938.891ZM938.891 159V161H940.891V159H938.891ZM910.747 159H908.747V161H910.747V159ZM910.747 108.404H912.747V106.404H910.747V108.404ZM888.511 107.223L888.111 109.182L888.118 109.184L888.511 107.223ZM876.909 103.463L876.056 105.272L876.076 105.281L876.097 105.291L876.909 103.463ZM865.952 96.6953L864.726 98.2758L865.952 96.6953ZM856.606 86.9199L854.956 88.0504L854.968 88.068L854.981 88.0853L856.606 86.9199ZM850.161 73.5996L848.251 74.1916L848.256 74.2078L848.261 74.2239L850.161 73.5996ZM847.798 4.95703V2.95703H845.798V4.95703H847.798ZM875.727 4.95703H877.727V2.95703H875.727V4.95703ZM877.446 66.4023L875.583 67.1294L875.586 67.1373L875.589 67.1451L877.446 66.4023ZM889.8 78.6484L889.073 80.5116L889.1 80.5222L889.127 80.5319L889.8 78.6484ZM950.171 80.2598V82.2598H950.332L950.491 82.234L950.171 80.2598ZM958.335 78.6484L958.784 80.5972L958.808 80.5918L958.832 80.5858L958.335 78.6484ZM973.911 4.95703V2.95703H971.911V4.95703H973.911ZM1001.84 4.95703H1003.84V2.95703H1001.84V4.95703ZM1001.84 56.5195H999.841C999.841 62.7238 999.039 68.2006 997.47 72.9753L999.37 73.5996L1001.27 74.2239C1003 68.9726 1003.84 63.0627 1003.84 56.5195H1001.84ZM999.37 73.5996L997.462 73C995.939 77.8468 993.908 82.1038 991.382 85.7895L993.032 86.9199L994.682 88.0504C997.456 84.0016 999.65 79.3785 1001.28 74.1993L999.37 73.5996ZM993.032 86.9199L991.392 85.7751C988.858 89.4051 985.886 92.5112 982.476 95.103L983.686 96.6953L984.897 98.2876C988.648 95.4367 991.907 92.0259 994.672 88.0648L993.032 86.9199ZM983.686 96.6953L982.461 95.1149C979.06 97.7519 975.532 99.9295 971.876 101.654L972.729 103.463L973.583 105.272C977.518 103.416 981.294 101.081 984.912 98.2758L983.686 96.6953ZM972.729 103.463L971.904 101.641C968.242 103.299 964.52 104.505 960.736 105.261L961.128 107.223L961.52 109.184C965.613 108.365 969.625 107.064 973.554 105.285L972.729 103.463ZM961.128 107.223L960.729 105.263C956.974 106.028 953.456 106.404 950.171 106.404V108.404V110.404C953.76 110.404 957.547 109.993 961.527 109.182L961.128 107.223ZM950.171 108.404V106.404H938.891V108.404V110.404H950.171V108.404ZM938.891 108.404H936.891V159H938.891H940.891V108.404H938.891ZM938.891 159V157H910.747V159V161H938.891V159ZM910.747 159H912.747V108.404H910.747H908.747V159H910.747ZM910.747 108.404V106.404H899.575V108.404V110.404H910.747V108.404ZM899.575 108.404V106.404C896.289 106.404 892.733 106.028 888.903 105.261L888.511 107.223L888.118 109.184C892.165 109.993 895.986 110.404 899.575 110.404V108.404ZM888.511 107.223L888.91 105.263C885.194 104.506 881.465 103.299 877.721 101.635L876.909 103.463L876.097 105.291C880.087 107.064 884.092 108.364 888.111 109.182L888.511 107.223ZM876.909 103.463L877.762 101.654C874.106 99.9295 870.578 97.7519 867.178 95.1149L865.952 96.6953L864.726 98.2758C868.344 101.081 872.121 103.416 876.056 105.272L876.909 103.463ZM865.952 96.6953L867.178 95.1149C863.829 92.5178 860.846 89.4013 858.232 85.7545L856.606 86.9199L854.981 88.0853C857.809 92.0297 861.057 95.4301 864.726 98.2758L865.952 96.6953ZM856.606 86.9199L858.256 85.7895C855.726 82.0965 853.656 77.8308 852.061 72.9753L850.161 73.5996L848.261 74.2239C849.96 79.3944 852.187 84.009 854.956 88.0504L856.606 86.9199ZM850.161 73.5996L852.071 73.0077C850.565 68.1462 849.798 62.6567 849.798 56.5195H847.798H845.798C845.798 62.9865 846.606 68.8838 848.251 74.1916L850.161 73.5996ZM847.798 56.5195H849.798V4.95703H847.798H845.798V56.5195H847.798ZM847.798 4.95703V6.95703H875.727V4.95703V2.95703H847.798V4.95703ZM875.727 4.95703H873.727V56.5195H875.727H877.727V4.95703H875.727ZM875.727 56.5195H873.727C873.727 60.3817 874.334 63.9278 875.583 67.1294L877.446 66.4023L879.309 65.6753C878.267 63.0045 877.727 59.9621 877.727 56.5195H875.727ZM877.446 66.4023L875.589 67.1451C876.83 70.2483 878.588 72.9507 880.866 75.2287L882.28 73.8145L883.694 72.4002C881.819 70.5245 880.353 68.2856 879.303 65.6596L877.446 66.4023ZM882.28 73.8145L880.866 75.2287C883.152 77.515 885.898 79.2727 889.073 80.5116L889.8 78.6484L890.527 76.7853C887.829 75.7325 885.562 74.2675 883.694 72.4002L882.28 73.8145ZM889.8 78.6484L889.127 80.5319C892.379 81.6934 895.941 82.2598 899.79 82.2598V80.2598V78.2598C896.334 78.2598 893.236 77.7519 890.472 76.765L889.8 78.6484ZM899.79 80.2598V82.2598H950.171V80.2598V78.2598H899.79V80.2598ZM950.171 80.2598L950.491 82.234C953.187 81.7968 955.951 81.251 958.784 80.5972L958.335 78.6484L957.885 76.6997C955.132 77.3349 952.454 77.8634 949.851 78.2856L950.171 80.2598ZM958.335 78.6484L958.832 80.5858C961.86 79.8092 964.631 78.5231 967.129 76.7275L965.962 75.1035L964.794 73.4795C962.709 74.9782 960.395 76.0554 957.838 76.7111L958.335 78.6484ZM965.962 75.1035L967.129 76.7275C969.719 74.8661 971.811 72.3114 973.435 69.1403L971.655 68.2285L969.875 67.3168C968.491 70.018 966.788 72.0467 964.794 73.4795L965.962 75.1035ZM971.655 68.2285L973.435 69.1403C975.136 65.8196 975.911 61.5671 975.911 56.5195H973.911H971.911C971.911 61.2116 971.182 64.765 969.875 67.3168L971.655 68.2285ZM973.911 56.5195H975.911V4.95703H973.911H971.911V56.5195H973.911ZM973.911 4.95703V6.95703H1001.84V4.95703V2.95703H973.911V4.95703ZM1001.84 4.95703H999.841V56.5195H1001.84H1003.84V4.95703H1001.84ZM1172.86 128.6L1170.95 127.986L1170.95 127.995L1170.95 128.005L1172.86 128.6ZM1139.66 157.926L1139.25 155.968L1139.25 155.97L1139.66 157.926ZM1022.36 159H1020.36V161H1022.36V159ZM1022.36 131.07V129.07H1020.36V131.07H1022.36ZM1142.56 126.344L1141.12 124.963L1141.11 124.971L1141.1 124.98L1142.56 126.344ZM1142.46 100.992L1140.98 102.338L1140.99 102.356L1141.01 102.373L1142.46 100.992ZM1137.08 97.3398L1136.32 99.1879L1136.33 99.1924L1136.34 99.1968L1137.08 97.3398ZM1051.25 93.6875L1050.65 95.5951L1050.67 95.5988L1050.68 95.6024L1051.25 93.6875ZM1036.65 85.8457L1035.39 87.4025L1035.4 87.4074L1035.4 87.4123L1036.65 85.8457ZM1025.47 71.7734L1023.69 72.6767L1023.69 72.6854L1023.7 72.6941L1025.47 71.7734ZM1025.47 29.3418L1023.7 28.4212L1023.69 28.4296L1025.47 29.3418ZM1036.65 15.2695L1037.9 16.8264L1037.9 16.824L1036.65 15.2695ZM1051.25 7.42773L1051.83 9.34266L1051.84 9.33905L1051.86 9.33529L1051.25 7.42773ZM1160.93 4.95703H1162.93V2.95703H1160.93V4.95703ZM1160.93 32.8867V34.8867H1162.93V32.8867H1160.93ZM1053.4 37.7207L1051.94 36.3561L1051.93 36.3648L1051.92 36.3737L1053.4 37.7207ZM1053.4 63.2871L1051.94 64.6506L1051.96 64.6678L1051.97 64.6846L1053.4 63.2871ZM1130.32 67.9062L1130.36 65.9068L1130.34 65.9062H1130.32V67.9062ZM1139.88 69.1953L1139.42 71.1427L1139.44 71.1473L1139.46 71.1515L1139.88 69.1953ZM1149.87 72.6328L1149.01 74.4371L1149.01 74.4407L1149.02 74.4442L1149.87 72.6328ZM1159.43 78.6484L1158.17 80.2029L1158.18 80.2121L1158.19 80.2211L1159.43 78.6484ZM1167.38 87.2422L1165.72 88.3678L1165.73 88.3797L1165.74 88.3914L1167.38 87.2422ZM1175 113.668H1173C1173 119.011 1172.31 123.776 1170.95 127.986L1172.86 128.6L1174.76 129.214C1176.27 124.543 1177 119.354 1177 113.668H1175ZM1172.86 128.6L1170.95 128.005C1169.64 132.208 1167.89 135.892 1165.72 139.076L1167.38 140.201L1169.03 141.327C1171.45 137.779 1173.35 133.729 1174.77 129.194L1172.86 128.6ZM1167.38 140.201L1165.72 139.076C1163.55 142.274 1161.01 144.981 1158.1 147.208L1159.32 148.795L1160.54 150.382C1163.8 147.882 1166.63 144.86 1169.03 141.327L1167.38 140.201ZM1159.32 148.795L1158.1 147.208C1155.14 149.486 1152.08 151.339 1148.93 152.776L1149.76 154.596L1150.59 156.415C1154.03 154.844 1157.35 152.83 1160.54 150.382L1159.32 148.795ZM1149.76 154.596L1148.93 152.776C1145.77 154.22 1142.54 155.283 1139.25 155.968L1139.66 157.926L1140.07 159.884C1143.66 159.136 1147.17 157.979 1150.59 156.415L1149.76 154.596ZM1139.66 157.926L1139.25 155.97C1136 156.661 1132.95 157 1130.1 157V159V161C1133.27 161 1136.6 160.623 1140.08 159.882L1139.66 157.926ZM1130.1 159V157H1022.36V159V161H1130.1V159ZM1022.36 159H1024.36V131.07H1022.36H1020.36V159H1022.36ZM1022.36 131.07V133.07H1130.1V131.07V129.07H1022.36V131.07ZM1130.1 131.07V133.07C1135.88 133.07 1140.62 131.36 1144.03 127.707L1142.56 126.344L1141.1 124.98C1138.63 127.629 1135.07 129.07 1130.1 129.07V131.07ZM1142.56 126.344L1144.01 127.725C1147.45 124.124 1149.07 119.364 1149.07 113.668H1147.07H1145.07C1145.07 118.571 1143.7 122.261 1141.12 124.963L1142.56 126.344ZM1147.07 113.668H1149.07C1149.07 110.884 1148.65 108.285 1147.77 105.89L1145.89 106.578L1144.02 107.267C1144.71 109.168 1145.07 111.295 1145.07 113.668H1147.07ZM1145.89 106.578L1147.77 105.89C1146.89 103.497 1145.61 101.396 1143.9 99.6112L1142.46 100.992L1141.01 102.373C1142.31 103.74 1143.32 105.363 1144.02 107.267L1145.89 106.578ZM1142.46 100.992L1143.94 99.6468C1142.28 97.8282 1140.23 96.4449 1137.83 95.4829L1137.08 97.3398L1136.34 99.1968C1138.23 99.9536 1139.76 101.005 1140.98 102.338L1142.46 100.992ZM1137.08 97.3398L1137.85 95.4918C1135.5 94.5184 1132.9 94.0508 1130.1 94.0508V96.0508V98.0508C1132.46 98.0508 1134.52 98.4425 1136.32 99.1879L1137.08 97.3398ZM1130.1 96.0508V94.0508H1065.86V96.0508V98.0508H1130.1V96.0508ZM1065.86 96.0508V94.0508C1061.58 94.0508 1056.91 93.3031 1051.83 91.7726L1051.25 93.6875L1050.68 95.6024C1056.05 97.2229 1061.12 98.0508 1065.86 98.0508V96.0508ZM1051.25 93.6875L1051.86 91.7799C1046.87 90.2099 1042.22 87.7157 1037.89 84.2791L1036.65 85.8457L1035.4 87.4123C1040.1 91.1371 1045.18 93.8708 1050.65 95.5951L1051.25 93.6875ZM1036.65 85.8457L1037.9 84.2889C1033.71 80.9055 1030.15 76.4434 1027.25 70.8528L1025.47 71.7734L1023.7 72.6941C1026.81 78.705 1030.7 83.6245 1035.39 87.4025L1036.65 85.8457ZM1025.47 71.7734L1027.26 70.8702C1024.5 65.4184 1023.07 58.6567 1023.07 50.5039H1021.07H1019.07C1019.07 59.1089 1020.58 66.5269 1023.69 72.6767L1025.47 71.7734ZM1021.07 50.5039H1023.07C1023.07 42.3499 1024.5 35.6288 1027.25 30.254L1025.47 29.3418L1023.69 28.4296C1020.58 34.5132 1019.07 41.9001 1019.07 50.5039H1021.07ZM1025.47 29.3418L1027.25 30.2624C1030.15 24.6718 1033.71 20.2098 1037.9 16.8264L1036.65 15.2695L1035.39 13.7127C1030.7 17.4907 1026.81 22.4102 1023.7 28.4212L1025.47 29.3418ZM1036.65 15.2695L1037.9 16.824C1042.23 13.3244 1046.87 10.8387 1051.83 9.34266L1051.25 7.42773L1050.68 5.51281C1045.19 7.1678 1040.09 9.90994 1035.39 13.715L1036.65 15.2695ZM1051.25 7.42773L1051.86 9.33529C1056.93 7.73674 1061.59 6.95703 1065.86 6.95703V4.95703V2.95703C1061.11 2.95703 1056.04 3.82446 1050.65 5.52017L1051.25 7.42773ZM1065.86 4.95703V6.95703H1160.93V4.95703V2.95703H1065.86V4.95703ZM1160.93 4.95703H1158.93V32.8867H1160.93H1162.93V4.95703H1160.93ZM1160.93 32.8867V30.8867H1065.86V32.8867V34.8867H1160.93V32.8867ZM1065.86 32.8867V30.8867C1060.13 30.8867 1055.4 32.6473 1051.94 36.3561L1053.4 37.7207L1054.87 39.0853C1057.42 36.3488 1061 34.8867 1065.86 34.8867V32.8867ZM1053.4 37.7207L1051.92 36.3737C1048.58 40.0404 1047 44.819 1047 50.5039H1049H1051C1051 45.5898 1052.35 41.8463 1054.88 39.0677L1053.4 37.7207ZM1049 50.5039H1047C1047 56.2503 1048.58 61.0436 1051.94 64.6506L1053.4 63.2871L1054.87 61.9237C1052.35 59.2285 1051 55.4997 1051 50.5039H1049ZM1053.4 63.2871L1051.97 64.6846C1055.44 68.2348 1060.16 69.9062 1065.86 69.9062V67.9062V65.9062C1060.97 65.9062 1057.38 64.4982 1054.83 61.8896L1053.4 63.2871ZM1065.86 67.9062V69.9062H1130.1V67.9062V65.9062H1065.86V67.9062ZM1130.1 67.9062V69.9062H1130.32V67.9062V65.9062H1130.1V67.9062ZM1130.32 67.9062L1130.27 69.9057C1133.12 69.9736 1136.17 70.3817 1139.42 71.1427L1139.88 69.1953L1140.33 67.2479C1136.85 66.4334 1133.53 65.9821 1130.36 65.9068L1130.32 67.9062ZM1139.88 69.1953L1139.46 71.1515C1142.66 71.8329 1145.84 72.9255 1149.01 74.4371L1149.87 72.6328L1150.73 70.8285C1147.3 69.1891 1143.82 67.99 1140.29 67.2391L1139.88 69.1953ZM1149.87 72.6328L1149.02 74.4442C1152.23 75.9482 1155.28 77.8658 1158.17 80.2029L1159.43 78.6484L1160.69 77.0939C1157.56 74.5613 1154.23 72.4684 1150.72 70.8214L1149.87 72.6328ZM1159.43 78.6484L1158.19 80.2211C1161.03 82.4497 1163.54 85.1605 1165.72 88.3678L1167.38 87.2422L1169.03 86.1166C1166.63 82.5921 1163.84 79.5737 1160.66 77.0758L1159.43 78.6484ZM1167.38 87.2422L1165.74 88.3914C1167.97 91.5698 1169.75 95.2458 1171.05 99.4385L1172.96 98.8438L1174.87 98.249C1173.46 93.7047 1171.51 89.6463 1169.01 86.0929L1167.38 87.2422ZM1172.96 98.8438L1171.05 99.4385C1172.34 103.58 1173 108.315 1173 113.668H1175H1177C1177 107.992 1176.3 102.845 1174.87 98.249L1172.96 98.8438Z" fill="url(#paint0_linear_404_472)"/>
<defs>
<linearGradient id="paint0_linear_404_472" x1="-132" y1="81" x2="1308" y2="81" gradientUnits="userSpaceOnUse">
<stop stop-color="#7779E7"/>
<stop offset="1" stop-color="#9BCFFC"/>
</linearGradient>
</defs>
</svg>
