<svg width="479" height="500" viewBox="0 0 479 500" fill="none" xmlns="http://www.w3.org/2000/svg">
<path d="M69.4865 368.421C69.877 366.424 70.9638 364.65 72.5363 363.442C74.1088 362.234 76.055 361.679 77.9975 361.884C79.9399 362.089 81.7404 363.039 83.0497 364.551C84.359 366.062 85.0839 368.028 85.0839 370.066C85.0839 372.104 84.359 374.069 83.0497 375.581C81.7404 377.093 79.9399 378.043 77.9975 378.248C76.055 378.453 74.1088 377.897 72.5363 376.689C70.9638 375.482 69.877 373.707 69.4865 371.711H0V368.421H69.4865ZM321.592 447.368C321.982 445.372 323.069 443.597 324.642 442.39C326.214 441.182 328.16 440.626 330.103 440.831C332.045 441.036 333.846 441.986 335.155 443.498C336.464 445.01 337.189 446.975 337.189 449.013C337.189 451.051 336.464 453.016 335.155 454.528C333.846 456.04 332.045 456.99 330.103 457.195C328.16 457.4 326.214 456.845 324.642 455.637C323.069 454.429 321.982 452.655 321.592 450.658H129.204V447.368H321.592ZM412.665 371.711C412.274 373.707 411.187 375.482 409.615 376.689C408.042 377.897 406.096 378.453 404.154 378.248C402.211 378.043 400.411 377.093 399.102 375.581C397.792 374.069 397.067 372.104 397.067 370.066C397.067 368.028 397.792 366.062 399.102 364.551C400.411 363.039 402.211 362.089 404.154 361.884C406.096 361.679 408.042 362.234 409.615 363.442C411.187 364.65 412.274 366.424 412.665 368.421H479V371.711H412.665ZM412.665 398.026C412.274 400.023 411.187 401.797 409.615 403.005C408.042 404.213 406.096 404.768 404.154 404.564C402.211 404.359 400.411 403.408 399.102 401.897C397.792 400.385 397.067 398.42 397.067 396.382C397.067 394.344 397.792 392.378 399.102 390.867C400.411 389.355 402.211 388.404 404.154 388.2C406.096 387.995 408.042 388.55 409.615 389.758C411.187 390.966 412.274 392.74 412.665 394.737H479V398.026H412.665ZM422.434 210.526C422.824 208.53 423.911 206.755 425.484 205.547C427.056 204.34 429.002 203.784 430.945 203.989C432.887 204.194 434.688 205.144 435.997 206.656C437.306 208.168 438.031 210.133 438.031 212.171C438.031 214.209 437.306 216.174 435.997 217.686C434.688 219.198 432.887 220.148 430.945 220.353C429.002 220.558 427.056 220.003 425.484 218.795C423.911 217.587 422.824 215.813 422.434 213.816H286.612C286.222 215.813 285.135 217.587 283.562 218.795C281.99 220.003 280.044 220.558 278.101 220.353C276.159 220.148 274.358 219.198 273.049 217.686C271.74 216.174 271.015 214.209 271.015 212.171C271.015 210.133 271.74 208.168 273.049 206.656C274.358 205.144 276.159 204.194 278.101 203.989C280.044 203.784 281.99 204.34 283.562 205.547C285.135 206.755 286.222 208.53 286.612 210.526H422.434ZM19.0655 131.579C19.4559 129.582 20.5428 127.808 22.1153 126.6C23.6878 125.392 25.6339 124.837 27.5764 125.042C29.5189 125.246 31.3193 126.197 32.6286 127.709C33.9379 129.22 34.6629 131.186 34.6629 133.224C34.6629 135.262 33.9379 137.227 32.6286 138.739C31.3193 140.25 29.5189 141.201 27.5764 141.406C25.6339 141.611 23.6878 141.055 22.1153 139.847C20.5428 138.64 19.4559 136.865 19.0655 134.868H0V131.579H19.0655ZM311.823 187.5C311.432 189.497 310.345 191.271 308.773 192.479C307.2 193.687 305.254 194.242 303.312 194.037C301.369 193.832 299.569 192.882 298.26 191.37C296.95 189.859 296.225 187.893 296.225 185.855C296.225 183.817 296.95 181.852 298.26 180.34C299.569 178.828 301.369 177.878 303.312 177.673C305.254 177.468 307.2 178.024 308.773 179.232C310.345 180.439 311.432 182.214 311.823 184.211H447.644C448.035 182.214 449.122 180.439 450.694 179.232C452.267 178.024 454.213 177.468 456.155 177.673C458.098 177.878 459.898 178.828 461.208 180.34C462.517 181.852 463.242 183.817 463.242 185.855C463.242 187.893 462.517 189.859 461.208 191.37C459.898 192.882 458.098 193.832 456.155 194.037C454.213 194.242 452.267 193.687 450.694 192.479C449.122 191.271 448.035 189.497 447.644 187.5H311.823ZM406.52 19.9013C408.433 20.3089 410.132 21.4434 411.29 23.0849C412.447 24.7263 412.979 26.7578 412.782 28.7854C412.586 30.813 411.676 32.6924 410.227 34.0591C408.779 35.4258 406.896 36.1825 404.944 36.1825C402.992 36.1825 401.109 35.4258 399.661 34.0591C398.212 32.6924 397.302 30.813 397.106 28.7854C396.909 26.7578 397.441 24.7263 398.599 23.0849C399.756 21.4434 401.455 20.3089 403.368 19.9013V0H406.52V19.9013ZM305.678 362.007C307.591 362.414 309.29 363.549 310.447 365.19C311.605 366.832 312.137 368.863 311.94 370.891C311.744 372.918 310.834 374.798 309.385 376.164C307.937 377.531 306.054 378.288 304.102 378.288C302.15 378.288 300.267 377.531 298.819 376.164C297.37 374.798 296.46 372.918 296.264 370.891C296.067 368.863 296.599 366.832 297.756 365.19C298.914 363.549 300.613 362.414 302.526 362.007V272.862C300.613 272.454 298.914 271.32 297.756 269.678C296.599 268.037 296.067 266.005 296.264 263.978C296.46 261.95 297.37 260.071 298.819 258.704C300.267 257.337 302.15 256.581 304.102 256.581C306.054 256.581 307.937 257.337 309.385 258.704C310.834 260.071 311.744 261.95 311.94 263.978C312.137 266.005 311.605 268.037 310.447 269.678C309.29 271.32 307.591 272.454 305.678 272.862V362.007ZM381.309 36.0197V131.579H479V134.868H378.158V36.0197C376.245 35.6121 374.545 34.4777 373.388 32.8362C372.231 31.1948 371.699 29.1633 371.895 27.1357C372.091 25.108 373.002 23.2287 374.45 21.8619C375.898 20.4952 377.781 19.7385 379.734 19.7385C381.686 19.7385 383.569 20.4952 385.017 21.8619C386.465 23.2287 387.376 25.108 387.572 27.1357C387.768 29.1633 387.236 31.1948 386.079 32.8362C384.922 34.4777 383.222 35.6121 381.309 36.0197ZM406.52 62.3355V105.263H479V108.553H403.368V62.3355C401.455 61.9279 399.756 60.7934 398.599 59.152C397.441 57.5105 396.909 55.4791 397.106 53.4514C397.302 51.4238 398.212 49.5445 399.661 48.1777C401.109 46.811 402.992 46.0543 404.944 46.0543C406.896 46.0543 408.779 46.811 410.227 48.1777C411.676 49.5445 412.586 51.4238 412.782 53.4514C412.979 55.4791 412.447 57.5105 411.29 59.152C410.132 60.7934 408.433 61.9279 406.52 62.3355ZM204.836 220.23V342.105H230.046V362.007C231.959 362.414 233.659 363.549 234.816 365.19C235.973 366.832 236.505 368.863 236.309 370.891C236.113 372.918 235.202 374.798 233.754 376.164C232.306 377.531 230.423 378.288 228.47 378.288C226.518 378.288 224.635 377.531 223.187 376.164C221.739 374.798 220.828 372.918 220.632 370.891C220.436 368.863 220.968 366.832 222.125 365.19C223.282 363.549 224.982 362.414 226.895 362.007V345.395H201.684V220.23C199.771 219.823 198.071 218.688 196.914 217.047C195.757 215.405 195.225 213.374 195.421 211.346C195.618 209.319 196.528 207.439 197.976 206.072C199.425 204.706 201.308 203.949 203.26 203.949C205.212 203.949 207.095 204.706 208.543 206.072C209.992 207.439 210.902 209.319 211.098 211.346C211.294 213.374 210.762 215.405 209.605 217.047C208.448 218.688 206.748 219.823 204.836 220.23ZM195.539 184.211C195.93 182.214 197.016 180.439 198.589 179.232C200.161 178.024 202.108 177.468 204.05 177.673C205.993 177.878 207.793 178.828 209.102 180.34C210.412 181.852 211.137 183.817 211.137 185.855C211.137 187.893 210.412 189.859 209.102 191.37C207.793 192.882 205.993 193.832 204.05 194.037C202.108 194.242 200.161 193.687 198.589 192.479C197.016 191.271 195.93 189.497 195.539 187.5H179.625V266.447H135.349C134.959 268.444 133.872 270.218 132.299 271.426C130.727 272.634 128.781 273.19 126.838 272.985C124.896 272.78 123.095 271.829 121.786 270.318C120.477 268.806 119.752 266.841 119.752 264.803C119.752 262.765 120.477 260.799 121.786 259.288C123.095 257.776 124.896 256.825 126.838 256.621C128.781 256.416 130.727 256.971 132.299 258.179C133.872 259.387 134.959 261.161 135.349 263.158H176.474V184.211H195.539ZM185.77 398.026C185.38 400.023 184.293 401.797 182.72 403.005C181.148 404.213 179.202 404.768 177.259 404.564C175.317 404.359 173.516 403.408 172.207 401.897C170.898 400.385 170.173 398.42 170.173 396.382C170.173 394.344 170.898 392.378 172.207 390.867C173.516 389.355 175.317 388.404 177.259 388.2C179.202 387.995 181.148 388.55 182.72 389.758C184.293 390.966 185.38 392.74 185.77 394.737H277.316V272.862C275.403 272.454 273.703 271.32 272.546 269.678C271.389 268.037 270.857 266.005 271.053 263.978C271.249 261.95 272.16 260.071 273.608 258.704C275.056 257.337 276.939 256.581 278.891 256.581C280.844 256.581 282.727 257.337 284.175 258.704C285.623 260.071 286.534 261.95 286.73 263.978C286.926 266.005 286.394 268.037 285.237 269.678C284.08 271.32 282.38 272.454 280.467 272.862V398.026H185.77ZM160.56 292.763C160.169 294.76 159.082 296.534 157.51 297.742C155.937 298.95 153.991 299.505 152.049 299.3C150.106 299.096 148.306 298.145 146.996 296.633C145.687 295.122 144.962 293.156 144.962 291.118C144.962 289.08 145.687 287.115 146.996 285.603C148.306 284.092 150.106 283.141 152.049 282.936C153.991 282.732 155.937 283.287 157.51 284.495C159.082 285.703 160.169 287.477 160.56 289.474H179.625V368.421H195.539C195.93 366.424 197.016 364.65 198.589 363.442C200.161 362.234 202.108 361.679 204.05 361.884C205.993 362.089 207.793 363.039 209.102 364.551C210.412 366.062 211.137 368.028 211.137 370.066C211.137 372.104 210.412 374.069 209.102 375.581C207.793 377.093 205.993 378.043 204.05 378.248C202.108 378.453 200.161 377.897 198.589 376.689C197.016 375.482 195.93 373.707 195.539 371.711H176.474V292.763H160.56ZM103.993 467.27C105.906 467.677 107.606 468.812 108.763 470.453C109.92 472.095 110.452 474.126 110.256 476.154C110.06 478.181 109.149 480.061 107.701 481.428C106.253 482.794 104.37 483.551 102.418 483.551C100.465 483.551 98.5826 482.794 97.1343 481.428C95.6861 480.061 94.7756 478.181 94.5794 476.154C94.3831 474.126 94.9152 472.095 96.0723 470.453C97.2294 468.812 98.9292 467.677 100.842 467.27V450.658H78.7829V500H75.6316V447.368H103.993V467.27ZM372.013 289.474C372.403 287.477 373.49 285.703 375.063 284.495C376.635 283.287 378.581 282.732 380.524 282.936C382.466 283.141 384.267 284.092 385.576 285.603C386.885 287.115 387.61 289.08 387.61 291.118C387.61 293.156 386.885 295.122 385.576 296.633C384.267 298.145 382.466 299.096 380.524 299.3C378.581 299.505 376.635 298.95 375.063 297.742C373.49 296.534 372.403 294.76 372.013 292.763H356.099V447.368H431.73V500H428.579V450.658H352.947V289.474H372.013ZM412.665 240.132C412.274 242.128 411.187 243.903 409.615 245.111C408.042 246.318 406.096 246.874 404.154 246.669C402.211 246.464 400.411 245.514 399.102 244.002C397.792 242.49 397.067 240.525 397.067 238.487C397.067 236.449 397.792 234.484 399.102 232.972C400.411 231.46 402.211 230.51 404.154 230.305C406.096 230.1 408.042 230.655 409.615 231.863C411.187 233.071 412.274 234.845 412.665 236.842H431.73V309.375C433.643 309.783 435.343 310.917 436.5 312.559C437.657 314.2 438.189 316.231 437.993 318.259C437.797 320.287 436.886 322.166 435.438 323.533C433.99 324.9 432.107 325.656 430.155 325.656C428.202 325.656 426.319 324.9 424.871 323.533C423.423 322.166 422.512 320.287 422.316 318.259C422.12 316.231 422.652 314.2 423.809 312.559C424.966 310.917 426.666 309.783 428.579 309.375V240.132H412.665ZM311.823 398.026C311.432 400.023 310.345 401.797 308.773 403.005C307.2 404.213 305.254 404.768 303.312 404.564C301.369 404.359 299.569 403.408 298.26 401.897C296.95 400.385 296.225 398.42 296.225 396.382C296.225 394.344 296.95 392.378 298.26 390.867C299.569 389.355 301.369 388.404 303.312 388.2C305.254 387.995 307.2 388.55 308.773 389.758C310.345 390.966 311.432 392.74 311.823 394.737H327.737V263.158H352.947V240.132H286.612C286.222 242.128 285.135 243.903 283.562 245.111C281.99 246.318 280.044 246.874 278.101 246.669C276.159 246.464 274.358 245.514 273.049 244.002C271.74 242.49 271.015 240.525 271.015 238.487C271.015 236.449 271.74 234.484 273.049 232.972C274.358 231.46 276.159 230.51 278.101 230.305C280.044 230.1 281.99 230.655 283.562 231.863C285.135 233.071 286.222 234.845 286.612 236.842H356.099V266.447H330.888V398.026H311.823ZM447.644 52.6316C448.035 50.6348 449.122 48.8605 450.694 47.6526C452.267 46.4448 454.213 45.8894 456.155 46.0943C458.098 46.2991 459.898 47.2495 461.208 48.7613C462.517 50.273 463.242 52.2384 463.242 54.2763C463.242 56.3143 462.517 58.2796 461.208 59.7914C459.898 61.3031 458.098 62.2535 456.155 62.4584C454.213 62.6632 452.267 62.1079 450.694 60.9C449.122 59.6921 448.035 57.9178 447.644 55.9211H428.579V0H431.73V52.6316H447.644ZM154.414 167.599V240.132H84.928C84.5375 242.128 83.4506 243.903 81.8781 245.111C80.3056 246.318 78.3595 246.874 76.417 246.669C74.4745 246.464 72.6741 245.514 71.3648 244.002C70.0555 242.49 69.3306 240.525 69.3306 238.487C69.3306 236.449 70.0555 234.484 71.3648 232.972C72.6741 231.46 74.4745 230.51 76.417 230.305C78.3595 230.1 80.3056 230.655 81.8781 231.863C83.4506 233.071 84.5375 234.845 84.928 236.842H151.263V167.599C149.35 167.191 147.65 166.057 146.493 164.415C145.336 162.774 144.804 160.742 145 158.715C145.197 156.687 146.107 154.808 147.555 153.441C149.004 152.074 150.886 151.317 152.839 151.317C154.791 151.317 156.674 152.074 158.122 153.441C159.57 154.808 160.481 156.687 160.677 158.715C160.873 160.742 160.341 162.774 159.184 164.415C158.027 166.057 156.327 167.191 154.414 167.599ZM84.928 55.9211C84.5375 57.9178 83.4506 59.6921 81.8781 60.9C80.3056 62.1079 78.3595 62.6632 76.417 62.4584C74.4745 62.2535 72.6741 61.3031 71.3648 59.7914C70.0555 58.2796 69.3306 56.3143 69.3306 54.2763C69.3306 52.2384 70.0555 50.273 71.3648 48.7613C72.6741 47.2495 74.4745 46.2991 76.417 46.0943C78.3595 45.8894 80.3056 46.4448 81.8781 47.6526C83.4506 48.8605 84.5375 50.6348 84.928 52.6316H126.053V0H129.204V55.9211H84.928ZM179.625 62.3355V108.553H129.204V213.816H110.138C109.748 215.813 108.661 217.587 107.089 218.795C105.516 220.003 103.57 220.558 101.628 220.353C99.6851 220.148 97.8846 219.198 96.5753 217.686C95.266 216.174 94.5411 214.209 94.5411 212.171C94.5411 210.133 95.266 208.168 96.5753 206.656C97.8846 205.144 99.6851 204.194 101.628 203.989C103.57 203.784 105.516 204.34 107.089 205.547C108.661 206.755 109.748 208.53 110.138 210.526H126.053V105.263H176.474V62.3355C174.561 61.9279 172.861 60.7934 171.704 59.152C170.547 57.5105 170.015 55.4791 170.211 53.4514C170.407 51.4238 171.318 49.5445 172.766 48.1777C174.214 46.811 176.097 46.0543 178.049 46.0543C180.002 46.0543 181.885 46.811 183.333 48.1777C184.781 49.5445 185.691 51.4238 185.888 53.4514C186.084 55.4791 185.552 57.5105 184.395 59.152C183.238 60.7934 181.538 61.9279 179.625 62.3355ZM160.56 134.868C160.169 136.865 159.082 138.64 157.51 139.847C155.937 141.055 153.991 141.611 152.049 141.406C150.106 141.201 148.306 140.25 146.996 138.739C145.687 137.227 144.962 135.262 144.962 133.224C144.962 131.186 145.687 129.22 146.996 127.709C148.306 126.197 150.106 125.246 152.049 125.042C153.991 124.837 155.937 125.392 157.51 126.6C159.082 127.808 160.169 129.582 160.56 131.579H201.684V62.3355C199.771 61.9279 198.071 60.7934 196.914 59.152C195.757 57.5105 195.225 55.4791 195.421 53.4514C195.618 51.4238 196.528 49.5445 197.976 48.1777C199.425 46.811 201.308 46.0543 203.26 46.0543C205.212 46.0543 207.095 46.811 208.543 48.1777C209.992 49.5445 210.902 51.4238 211.098 53.4514C211.294 55.4791 210.762 57.5105 209.605 59.152C208.448 60.7934 206.748 61.9279 204.836 62.3355V134.868H160.56ZM185.77 29.6053C185.38 31.602 184.293 33.3764 182.72 34.5842C181.148 35.7921 179.202 36.3474 177.259 36.1426C175.317 35.9377 173.516 34.9873 172.207 33.4756C170.898 31.9638 170.173 29.9985 170.173 27.9605C170.173 25.9226 170.898 23.9572 172.207 22.4455C173.516 20.9337 175.317 19.9833 177.259 19.7785C179.202 19.5737 181.148 20.129 182.72 21.3368C184.293 22.5447 185.38 24.319 185.77 26.3158H230.046V98.8487C231.959 99.2563 233.659 100.391 234.816 102.032C235.973 103.674 236.505 105.705 236.309 107.733C236.113 109.76 235.202 111.64 233.754 113.006C232.306 114.373 230.423 115.13 228.47 115.13C226.518 115.13 224.635 114.373 223.187 113.006C221.739 111.64 220.828 109.76 220.632 107.733C220.436 105.705 220.968 103.674 222.125 102.032C223.282 100.391 224.982 99.2563 226.895 98.8487V29.6053H185.77ZM346.802 473.684C347.193 471.687 348.28 469.913 349.852 468.705C351.425 467.497 353.371 466.942 355.313 467.147C357.256 467.352 359.056 468.302 360.365 469.814C361.675 471.326 362.4 473.291 362.4 475.329C362.4 477.367 361.675 479.332 360.365 480.844C359.056 482.356 357.256 483.306 355.313 483.511C353.371 483.716 351.425 483.16 349.852 481.953C348.28 480.745 347.193 478.97 346.802 476.974H154.414V500H151.263V473.684H346.802ZM381.309 246.546V263.158H406.52V319.079H381.309V421.053H456.941V500H453.789V424.342H378.158V315.789H403.368V266.447H378.158V246.546C376.245 246.138 374.545 245.004 373.388 243.363C372.231 241.721 371.699 239.69 371.895 237.662C372.091 235.634 373.002 233.755 374.45 232.388C375.898 231.022 377.781 230.265 379.734 230.265C381.686 230.265 383.569 231.022 385.017 232.388C386.465 233.755 387.376 235.634 387.572 237.662C387.768 239.69 387.236 241.721 386.079 243.363C384.922 245.004 383.222 246.138 381.309 246.546ZM84.928 29.6053C84.5375 31.602 83.4506 33.3764 81.8781 34.5842C80.3056 35.7921 78.3595 36.3474 76.417 36.1426C74.4745 35.9377 72.6741 34.9873 71.3648 33.4756C70.0555 31.9638 69.3306 29.9985 69.3306 27.9605C69.3306 25.9226 70.0555 23.9572 71.3648 22.4455C72.6741 20.9337 74.4745 19.9833 76.417 19.7785C78.3595 19.5737 80.3056 20.129 81.8781 21.3368C83.4506 22.5447 84.5375 24.319 84.928 26.3158H100.842V3.28947H75.6316V0H103.993V29.6053H84.928ZM261.402 82.2368C261.011 84.2336 259.924 86.0079 258.352 87.2158C256.779 88.4236 254.833 88.979 252.891 88.7742C250.948 88.5693 249.148 87.6189 247.838 86.1072C246.529 84.5954 245.804 82.6301 245.804 80.5921C245.804 78.5542 246.529 76.5888 247.838 75.0771C249.148 73.5653 250.948 72.6149 252.891 72.4101C254.833 72.2052 256.779 72.7606 258.352 73.9684C259.924 75.1763 261.011 76.9506 261.402 78.9474H302.526V0H381.309V3.28947H305.678V82.2368H261.402ZM185.77 3.28947C185.563 4.34782 185.159 5.35327 184.579 6.2484C184 7.14353 183.258 7.91082 182.395 8.50646C181.531 9.1021 180.564 9.51443 179.548 9.71989C178.532 9.92536 177.488 9.91994 176.474 9.70395C175.46 9.48796 174.497 9.06563 173.639 8.46106C172.781 7.8565 172.046 7.08155 171.476 6.18045C170.323 4.36061 169.911 2.13744 170.329 0L173.59 0C173.339 0.744026 173.263 1.53996 173.368 2.32107C173.473 3.10218 173.755 3.84572 174.192 4.48934C174.629 5.13297 175.207 5.65794 175.878 6.02024C176.549 6.38254 177.294 6.57161 178.049 6.57161C178.805 6.57161 179.55 6.38254 180.221 6.02024C180.892 5.65794 181.47 5.13297 181.907 4.48934C182.343 3.84572 182.626 3.10218 182.731 2.32107C182.835 1.53996 182.759 0.744026 182.508 0L280.467 0V55.9211H252.105V36.0197C250.192 35.6121 248.493 34.4777 247.335 32.8362C246.178 31.1948 245.646 29.1633 245.843 27.1357C246.039 25.108 246.949 23.2287 248.397 21.8619C249.846 20.4952 251.729 19.7385 253.681 19.7385C255.633 19.7385 257.516 20.4952 258.964 21.8619C260.413 23.2287 261.323 25.108 261.519 27.1357C261.716 29.1633 261.184 31.1948 260.026 32.8362C258.869 34.4777 257.169 35.6121 255.257 36.0197V52.6316H277.316V3.28947H185.77ZM185.77 161.184C185.38 163.181 184.293 164.955 182.72 166.163C181.148 167.371 179.202 167.926 177.259 167.722C175.317 167.517 173.516 166.566 172.207 165.055C170.898 163.543 170.173 161.577 170.173 159.539C170.173 157.502 170.898 155.536 172.207 154.024C173.516 152.513 175.317 151.562 177.259 151.357C179.202 151.153 181.148 151.708 182.72 152.916C184.293 154.124 185.38 155.898 185.77 157.895H215.865L266.286 105.263H327.737V36.0197C325.824 35.6121 324.124 34.4777 322.967 32.8362C321.81 31.1948 321.278 29.1633 321.474 27.1357C321.67 25.108 322.581 23.2287 324.029 21.8619C325.477 20.4952 327.36 19.7385 329.312 19.7385C331.265 19.7385 333.148 20.4952 334.596 21.8619C336.044 23.2287 336.955 25.108 337.151 27.1357C337.347 29.1633 336.815 31.1948 335.658 32.8362C334.501 34.4777 332.801 35.6121 330.888 36.0197V108.553H267.594L217.173 161.184H185.77ZM230.046 309.375C231.959 309.783 233.659 310.917 234.816 312.559C235.973 314.2 236.505 316.231 236.309 318.259C236.113 320.287 235.202 322.166 233.754 323.533C232.306 324.9 230.423 325.656 228.47 325.656C226.518 325.656 224.635 324.9 223.187 323.533C221.739 322.166 220.828 320.287 220.632 318.259C220.436 316.231 220.968 314.2 222.125 312.559C223.282 310.917 224.982 309.783 226.895 309.375V183.536L276.67 131.579H352.947V36.0197C351.034 35.6121 349.335 34.4777 348.178 32.8362C347.02 31.1948 346.488 29.1633 346.685 27.1357C346.881 25.108 347.791 23.2287 349.24 21.8619C350.688 20.4952 352.571 19.7385 354.523 19.7385C356.475 19.7385 358.358 20.4952 359.806 21.8619C361.255 23.2287 362.165 25.108 362.361 27.1357C362.558 29.1633 362.026 31.1948 360.868 32.8362C359.711 34.4777 358.012 35.6121 356.099 36.0197V134.868H277.962L230.046 184.885V309.375ZM255.257 362.007C257.169 362.414 258.869 363.549 260.026 365.19C261.184 366.832 261.716 368.863 261.519 370.891C261.323 372.918 260.413 374.798 258.964 376.164C257.516 377.531 255.633 378.288 253.681 378.288C251.729 378.288 249.846 377.531 248.397 376.164C246.949 374.798 246.039 372.918 245.843 370.891C245.646 368.863 246.178 366.832 247.335 365.19C248.493 363.549 250.192 362.414 252.105 362.007V198.339L290.851 157.895H472.855C473.164 156.314 473.911 154.864 475.004 153.723C476.096 152.583 477.486 151.803 479 151.48V154.885C478.077 155.224 477.277 155.854 476.711 156.688C476.145 157.521 475.842 158.518 475.842 159.539C475.842 160.561 476.145 161.558 476.711 162.391C477.277 163.225 478.077 163.855 479 164.194V167.599C477.486 167.276 476.096 166.496 475.004 165.356C473.911 164.215 473.164 162.765 472.855 161.184H292.143L255.257 199.688V362.007ZM28.3618 256.743C30.2748 257.151 31.9745 258.286 33.1317 259.927C34.2888 261.568 34.8208 263.6 34.6246 265.628C34.4283 267.655 33.5179 269.534 32.0696 270.901C30.6214 272.268 28.7385 273.025 26.7862 273.025C24.8338 273.025 22.951 272.268 21.5028 270.901C20.0545 269.534 19.144 267.655 18.9478 265.628C18.7516 263.6 19.2836 261.568 20.4407 259.927C21.5978 258.286 23.2976 257.151 25.2105 256.743V250.97L100.842 172.023V78.9474H151.263V0H154.414V82.2368H103.993V173.372L28.3618 252.319V256.743ZM78.7829 88.6513V160.214L3.15132 239.161V342.105H44.276C44.6665 340.108 45.7533 338.334 47.3258 337.126C48.8983 335.918 50.8445 335.363 52.7869 335.568C54.7294 335.773 56.5298 336.723 57.8391 338.235C59.1485 339.747 59.8734 341.712 59.8734 343.75C59.8734 345.788 59.1485 347.753 57.8391 349.265C56.5298 350.777 54.7294 351.727 52.7869 351.932C50.8445 352.137 48.8983 351.582 47.3258 350.374C45.7533 349.166 44.6665 347.392 44.276 345.395H0V237.813L75.6316 158.865V88.6513C73.7187 88.2437 72.0189 87.1092 70.8617 85.4678C69.7046 83.8263 69.1726 81.7949 69.3688 79.7672C69.5651 77.7396 70.4756 75.8602 71.9238 74.4935C73.3721 73.1268 75.2549 72.3701 77.2072 72.3701C79.1596 72.3701 81.0424 73.1268 82.4907 74.4935C83.9389 75.8602 84.8494 77.7396 85.0456 79.7672C85.2419 81.7949 84.7098 83.8263 83.5527 85.4678C82.3956 87.1092 80.6958 88.2437 78.7829 88.6513ZM53.5724 114.967V147.056L0 202.977V198.339L50.4211 145.707V114.967C48.5081 114.56 46.8083 113.425 45.6512 111.784C44.4941 110.142 43.9621 108.111 44.1583 106.083C44.3545 104.055 45.265 102.176 46.7133 100.809C48.1615 99.4426 50.0443 98.6859 51.9967 98.6859C53.9491 98.6859 55.8319 99.4426 57.2801 100.809C58.7284 102.176 59.6389 104.055 59.8351 106.083C60.0313 108.111 59.4993 110.142 58.3422 111.784C57.1851 113.425 55.4853 114.56 53.5724 114.967ZM19.0655 52.6316C19.4559 50.6348 20.5428 48.8605 22.1153 47.6526C23.6878 46.4448 25.6339 45.8894 27.5764 46.0943C29.5189 46.2991 31.3193 47.2495 32.6286 48.7613C33.9379 50.273 34.6629 52.2384 34.6629 54.2763C34.6629 56.3143 33.9379 58.2796 32.6286 59.7914C31.3193 61.3031 29.5189 62.2535 27.5764 62.4584C25.6339 62.6632 23.6878 62.1079 22.1153 60.9C20.5428 59.6921 19.4559 57.9178 19.0655 55.9211H14.8269L0 71.398V66.7763L13.5349 52.6316H19.0655ZM437.875 82.2368C437.485 84.2336 436.398 86.0079 434.825 87.2158C433.253 88.4236 431.307 88.979 429.364 88.7742C427.422 88.5693 425.621 87.6189 424.312 86.1072C423.003 84.5954 422.278 82.6301 422.278 80.5921C422.278 78.5542 423.003 76.5888 424.312 75.0771C425.621 73.5653 427.422 72.6149 429.364 72.4101C431.307 72.2052 433.253 72.7606 434.825 73.9684C436.398 75.1763 437.485 76.9506 437.875 78.9474H467.324L479 66.7599V71.398L468.616 82.2368H437.875ZM412.665 345.395C412.274 347.392 411.187 349.166 409.615 350.374C408.042 351.582 406.096 352.137 404.154 351.932C402.211 351.727 400.411 350.777 399.102 349.265C397.792 347.753 397.067 345.788 397.067 343.75C397.067 341.712 397.792 339.747 399.102 338.235C400.411 336.723 402.211 335.773 404.154 335.568C406.096 335.363 408.042 335.918 409.615 337.126C411.187 338.334 412.274 340.108 412.665 342.105H453.789V224.655L479 198.339V202.977L456.941 226.003V345.395H412.665ZM84.928 398.026C84.5375 400.023 83.4506 401.797 81.8781 403.005C80.3056 404.213 78.3595 404.768 76.417 404.564C74.4745 404.359 72.6741 403.408 71.3648 401.897C70.0555 400.385 69.3306 398.42 69.3306 396.382C69.3306 394.344 70.0555 392.378 71.3648 390.867C72.6741 389.355 74.4745 388.404 76.417 388.2C78.3595 387.995 80.3056 388.55 81.8781 389.758C83.4506 390.966 84.5375 392.74 84.928 394.737H100.842V357.582L63.956 319.079H34.5069C34.1164 321.076 33.0296 322.85 31.4571 324.058C29.8846 325.266 27.9384 325.821 25.996 325.616C24.0535 325.411 22.2531 324.461 20.9437 322.949C19.6344 321.438 18.9095 319.472 18.9095 317.434C18.9095 315.396 19.6344 313.431 20.9437 311.919C22.2531 310.407 24.0535 309.457 25.996 309.252C27.9384 309.047 29.8846 309.603 31.4571 310.811C33.0296 312.018 34.1164 313.793 34.5069 315.789H65.248L103.993 356.234V398.026H84.928ZM321.592 421.053C321.982 419.056 323.069 417.282 324.642 416.074C326.214 414.866 328.16 414.31 330.103 414.515C332.045 414.72 333.846 415.671 335.155 417.182C336.464 418.694 337.189 420.659 337.189 422.697C337.189 424.735 336.464 426.701 335.155 428.212C333.846 429.724 332.045 430.675 330.103 430.879C328.16 431.084 326.214 430.529 324.642 429.321C323.069 428.113 321.982 426.339 321.592 424.342H151.263V331.25L89.1822 266.447H59.7174C59.327 268.444 58.2401 270.218 56.6676 271.426C55.0951 272.634 53.149 273.19 51.2065 272.985C49.264 272.78 47.4636 271.829 46.1543 270.318C44.845 268.806 44.12 266.841 44.12 264.803C44.12 262.765 44.845 260.799 46.1543 259.288C47.4636 257.776 49.264 256.825 51.2065 256.621C53.149 256.416 55.0951 256.971 56.6676 258.179C58.2401 259.387 59.327 261.161 59.7174 263.158H90.4428L154.414 329.934V421.053H321.592ZM84.928 424.342C84.5375 426.339 83.4506 428.113 81.8781 429.321C80.3056 430.529 78.3595 431.084 76.417 430.879C74.4745 430.675 72.6741 429.724 71.3648 428.212C70.0555 426.701 69.3306 424.735 69.3306 422.697C69.3306 420.659 70.0555 418.694 71.3648 417.182C72.6741 415.671 74.4745 414.72 76.417 414.515C78.3595 414.31 80.3056 414.866 81.8781 416.074C83.4506 417.282 84.5375 419.056 84.928 421.053H126.053V344.424L76.5612 292.763H34.5069C34.1164 294.76 33.0296 296.534 31.4571 297.742C29.8846 298.95 27.9384 299.505 25.996 299.3C24.0535 299.096 22.2531 298.145 20.9437 296.633C19.6344 295.122 18.9095 293.156 18.9095 291.118C18.9095 289.08 19.6344 287.115 20.9437 285.603C22.2531 284.092 24.0535 283.141 25.996 282.936C27.9384 282.732 29.8846 283.287 31.4571 284.495C33.0296 285.703 34.1164 287.477 34.5069 289.474H77.8533L129.204 343.076V424.342H84.928ZM53.5724 65.4605V68.1086L14.8269 108.553H0V105.263H13.5349L50.4211 66.7599V0H53.5724V65.4605ZM3.15132 493.586C4.66535 493.908 6.05516 494.688 7.14779 495.828C8.24041 496.969 8.9876 498.42 9.29638 500H6.03477C5.82811 499.389 5.50803 498.826 5.09283 498.343C4.67763 497.861 4.17544 497.469 3.61499 497.19C3.05453 496.91 2.44679 496.749 1.8265 496.714C1.20622 496.68 0.585558 496.774 0 496.99L0 421.053H28.3618V500H25.2105V424.342H3.15132V493.586ZM53.5724 396.382V500H50.4211V398.026H0V394.737H53.5724V396.382ZM26.7862 29.6053H0V26.3158H25.2105V0H28.3618V29.6053H26.7862ZM456.941 26.3158H479V29.6053H453.789V0H456.941V26.3158ZM406.52 475.329V500H403.368V476.974H381.309V500H378.158V473.684H406.52V475.329ZM0 151.48C1.14411 151.243 2.32443 151.272 3.45639 151.566C4.58835 151.861 5.64392 152.413 6.54745 153.183C7.45099 153.953 8.18013 154.923 8.68262 156.021C9.18511 157.12 9.44851 158.322 9.45395 159.539C9.45419 160.759 9.19455 161.963 8.69384 163.065C8.19313 164.167 7.4639 165.139 6.55895 165.911C5.654 166.682 4.596 167.234 3.4616 167.526C2.32719 167.818 1.14477 167.843 0 167.599L0 164.194C0.712777 164.456 1.47528 164.535 2.22358 164.426C2.97189 164.317 3.6842 164.022 4.30079 163.566C4.91739 163.11 5.42031 162.507 5.76739 161.806C6.11447 161.105 6.2956 160.328 6.2956 159.539C6.2956 158.751 6.11447 157.974 5.76739 157.273C5.42031 156.572 4.91739 155.969 4.30079 155.513C3.6842 155.057 2.97189 154.762 2.22358 154.653C1.47528 154.544 0.712777 154.623 0 154.885L0 151.48ZM126.053 447.368H129.204V500H126.053V447.368ZM185.77 500H182.508C182.184 499.036 181.58 498.201 180.781 497.611C179.983 497.02 179.028 496.703 178.049 496.703C177.071 496.703 176.116 497.02 175.317 497.611C174.518 498.201 173.915 499.036 173.59 500H170.329C170.69 498.141 171.656 496.47 173.064 495.269C174.471 494.069 176.232 493.413 178.049 493.413C179.867 493.413 181.628 494.069 183.035 495.269C184.442 496.47 185.408 498.141 185.77 500ZM9.29638 0C9.54902 1.3309 9.48357 2.70628 9.1058 4.00449C8.72803 5.3027 8.0496 6.48373 7.13051 7.44312C6.21142 8.40251 5.07999 9.11068 3.8363 9.50501C2.59262 9.89934 1.275 9.96767 0 9.70395L0 6.29934C0.841745 6.61084 1.75081 6.66706 2.6219 6.46148C3.49299 6.2559 4.29047 5.79694 4.92197 5.13776C5.55347 4.47857 5.99316 3.64613 6.1901 2.73685C6.38704 1.82756 6.33319 0.878648 6.03477 0L9.29638 0ZM472.855 0H476.117C475.909 0.61123 475.82 1.2591 475.852 1.90658C475.885 2.55406 476.04 3.18844 476.308 3.77347C476.575 4.3585 476.951 4.8827 477.413 5.31611C477.875 5.74951 478.414 6.08362 479 6.29934V9.70395C477.986 9.48816 477.023 9.06595 476.165 8.46144C475.307 7.85694 474.572 7.08198 474.002 6.18083C473.431 5.27968 473.036 4.27001 472.839 3.20949C472.642 2.14896 472.648 1.05837 472.855 0ZM479 493.586V496.99C478.335 497.235 477.73 497.633 477.231 498.154C476.732 498.675 476.351 499.305 476.117 500H472.855C473.164 498.42 473.911 496.969 475.004 495.828C476.096 494.688 477.486 493.908 479 493.586ZM152.839 164.474C153.46 164.474 154.074 164.346 154.648 164.098C155.221 163.85 155.742 163.487 156.181 163.028C156.62 162.57 156.968 162.026 157.206 161.428C157.444 160.829 157.566 160.187 157.566 159.539C157.566 158.892 157.444 158.25 157.206 157.651C156.968 157.053 156.62 156.509 156.181 156.05C155.742 155.592 155.221 155.229 154.648 154.981C154.074 154.733 153.46 154.605 152.839 154.605C151.585 154.605 150.383 155.125 149.496 156.05C148.61 156.976 148.112 158.231 148.112 159.539C148.112 160.848 148.61 162.103 149.496 163.028C150.383 163.954 151.585 164.474 152.839 164.474ZM152.839 138.158C154.092 138.158 155.295 137.638 156.181 136.713C157.068 135.787 157.566 134.532 157.566 133.224C157.566 131.915 157.068 130.66 156.181 129.735C155.295 128.809 154.092 128.289 152.839 128.289C151.585 128.289 150.383 128.809 149.496 129.735C148.61 130.66 148.112 131.915 148.112 133.224C148.112 134.532 148.61 135.787 149.496 136.713C150.383 137.638 151.585 138.158 152.839 138.158ZM178.049 164.474C178.67 164.474 179.285 164.346 179.858 164.098C180.432 163.85 180.953 163.487 181.392 163.028C181.831 162.57 182.179 162.026 182.416 161.428C182.654 160.829 182.776 160.187 182.776 159.539C182.776 158.892 182.654 158.25 182.416 157.651C182.179 157.053 181.831 156.509 181.392 156.05C180.953 155.592 180.432 155.229 179.858 154.981C179.285 154.733 178.67 154.605 178.049 154.605C176.796 154.605 175.593 155.125 174.707 156.05C173.82 156.976 173.322 158.231 173.322 159.539C173.322 160.848 173.82 162.103 174.707 163.028C175.593 163.954 176.796 164.474 178.049 164.474ZM203.26 190.789C204.514 190.789 205.716 190.27 206.602 189.344C207.489 188.419 207.987 187.164 207.987 185.855C207.987 184.547 207.489 183.292 206.602 182.366C205.716 181.441 204.514 180.921 203.26 180.921C202.006 180.921 200.804 181.441 199.917 182.366C199.031 183.292 198.533 184.547 198.533 185.855C198.533 187.164 199.031 188.419 199.917 189.344C200.804 190.27 202.006 190.789 203.26 190.789ZM203.26 217.105C204.514 217.105 205.716 216.585 206.602 215.66C207.489 214.735 207.987 213.48 207.987 212.171C207.987 210.862 207.489 209.607 206.602 208.682C205.716 207.757 204.514 207.237 203.26 207.237C202.006 207.237 200.804 207.757 199.917 208.682C199.031 209.607 198.533 210.862 198.533 212.171C198.533 213.48 199.031 214.735 199.917 215.66C200.804 216.585 202.006 217.105 203.26 217.105ZM127.628 269.737C128.882 269.737 130.084 269.217 130.971 268.292C131.857 267.366 132.355 266.111 132.355 264.803C132.355 263.494 131.857 262.239 130.971 261.314C130.084 260.388 128.882 259.868 127.628 259.868C126.375 259.868 125.172 260.388 124.286 261.314C123.399 262.239 122.901 263.494 122.901 264.803C122.901 266.111 123.399 267.366 124.286 268.292C125.172 269.217 126.375 269.737 127.628 269.737ZM152.839 296.053C154.092 296.053 155.295 295.533 156.181 294.607C157.068 293.682 157.566 292.427 157.566 291.118C157.566 289.81 157.068 288.555 156.181 287.629C155.295 286.704 154.092 286.184 152.839 286.184C151.585 286.184 150.383 286.704 149.496 287.629C148.61 288.555 148.112 289.81 148.112 291.118C148.112 292.427 148.61 293.682 149.496 294.607C150.383 295.533 151.585 296.053 152.839 296.053ZM203.26 375C204.514 375 205.716 374.48 206.602 373.555C207.489 372.629 207.987 371.374 207.987 370.066C207.987 368.757 207.489 367.502 206.602 366.577C205.716 365.651 204.514 365.132 203.26 365.132C202.006 365.132 200.804 365.651 199.917 366.577C199.031 367.502 198.533 368.757 198.533 370.066C198.533 371.374 199.031 372.629 199.917 373.555C200.804 374.48 202.006 375 203.26 375ZM178.049 401.316C179.303 401.316 180.505 400.796 181.392 399.871C182.278 398.945 182.776 397.69 182.776 396.382C182.776 395.073 182.278 393.818 181.392 392.893C180.505 391.967 179.303 391.447 178.049 391.447C176.796 391.447 175.593 391.967 174.707 392.893C173.82 393.818 173.322 395.073 173.322 396.382C173.322 397.69 173.82 398.945 174.707 399.871C175.593 400.796 176.796 401.316 178.049 401.316ZM228.47 375C229.724 375 230.926 374.48 231.813 373.555C232.699 372.629 233.197 371.374 233.197 370.066C233.197 368.757 232.699 367.502 231.813 366.577C230.926 365.651 229.724 365.132 228.47 365.132C227.217 365.132 226.014 365.651 225.128 366.577C224.241 367.502 223.743 368.757 223.743 370.066C223.743 371.374 224.241 372.629 225.128 373.555C226.014 374.48 227.217 375 228.47 375ZM228.47 322.368C229.724 322.368 230.926 321.849 231.813 320.923C232.699 319.998 233.197 318.743 233.197 317.434C233.197 316.126 232.699 314.871 231.813 313.945C230.926 313.02 229.724 312.5 228.47 312.5C227.217 312.5 226.014 313.02 225.128 313.945C224.241 314.871 223.743 316.126 223.743 317.434C223.743 318.743 224.241 319.998 225.128 320.923C226.014 321.849 227.217 322.368 228.47 322.368ZM253.681 375C254.935 375 256.137 374.48 257.023 373.555C257.91 372.629 258.408 371.374 258.408 370.066C258.408 368.757 257.91 367.502 257.023 366.577C256.137 365.651 254.935 365.132 253.681 365.132C252.427 365.132 251.225 365.651 250.338 366.577C249.452 367.502 248.954 368.757 248.954 370.066C248.954 371.374 249.452 372.629 250.338 373.555C251.225 374.48 252.427 375 253.681 375ZM304.102 401.316C305.356 401.316 306.558 400.796 307.444 399.871C308.331 398.945 308.829 397.69 308.829 396.382C308.829 395.073 308.331 393.818 307.444 392.893C306.558 391.967 305.356 391.447 304.102 391.447C302.848 391.447 301.646 391.967 300.759 392.893C299.873 393.818 299.375 395.073 299.375 396.382C299.375 397.69 299.873 398.945 300.759 399.871C301.646 400.796 302.848 401.316 304.102 401.316ZM304.102 375C305.356 375 306.558 374.48 307.444 373.555C308.331 372.629 308.829 371.374 308.829 370.066C308.829 368.757 308.331 367.502 307.444 366.577C306.558 365.651 305.356 365.132 304.102 365.132C302.848 365.132 301.646 365.651 300.759 366.577C299.873 367.502 299.375 368.757 299.375 370.066C299.375 371.374 299.873 372.629 300.759 373.555C301.646 374.48 302.848 375 304.102 375ZM278.891 269.737C280.145 269.737 281.347 269.217 282.234 268.292C283.12 267.366 283.618 266.111 283.618 264.803C283.618 263.494 283.12 262.239 282.234 261.314C281.347 260.388 280.145 259.868 278.891 259.868C277.638 259.868 276.435 260.388 275.549 261.314C274.662 262.239 274.164 263.494 274.164 264.803C274.164 266.111 274.662 267.366 275.549 268.292C276.435 269.217 277.638 269.737 278.891 269.737ZM304.102 269.737C305.356 269.737 306.558 269.217 307.444 268.292C308.331 267.366 308.829 266.111 308.829 264.803C308.829 263.494 308.331 262.239 307.444 261.314C306.558 260.388 305.356 259.868 304.102 259.868C302.848 259.868 301.646 260.388 300.759 261.314C299.873 262.239 299.375 263.494 299.375 264.803C299.375 266.111 299.873 267.366 300.759 268.292C301.646 269.217 302.848 269.737 304.102 269.737ZM329.312 427.632C330.566 427.632 331.768 427.112 332.655 426.186C333.541 425.261 334.039 424.006 334.039 422.697C334.039 421.389 333.541 420.134 332.655 419.208C331.768 418.283 330.566 417.763 329.312 417.763C328.059 417.763 326.856 418.283 325.97 419.208C325.084 420.134 324.586 421.389 324.586 422.697C324.586 424.006 325.084 425.261 325.97 426.186C326.856 427.112 328.059 427.632 329.312 427.632ZM329.312 453.947C330.566 453.947 331.768 453.428 332.655 452.502C333.541 451.577 334.039 450.322 334.039 449.013C334.039 447.705 333.541 446.45 332.655 445.524C331.768 444.599 330.566 444.079 329.312 444.079C328.059 444.079 326.856 444.599 325.97 445.524C325.084 446.45 324.586 447.705 324.586 449.013C324.586 450.322 325.084 451.577 325.97 452.502C326.856 453.428 328.059 453.947 329.312 453.947ZM354.523 480.263C355.777 480.263 356.979 479.743 357.865 478.818C358.752 477.893 359.25 476.638 359.25 475.329C359.25 474.02 358.752 472.765 357.865 471.84C356.979 470.915 355.777 470.395 354.523 470.395C353.269 470.395 352.067 470.915 351.181 471.84C350.294 472.765 349.796 474.02 349.796 475.329C349.796 476.638 350.294 477.893 351.181 478.818C352.067 479.743 353.269 480.263 354.523 480.263ZM379.734 243.421C380.987 243.421 382.19 242.901 383.076 241.976C383.962 241.051 384.461 239.795 384.461 238.487C384.461 237.178 383.962 235.923 383.076 234.998C382.19 234.072 380.987 233.553 379.734 233.553C378.48 233.553 377.278 234.072 376.391 234.998C375.505 235.923 375.007 237.178 375.007 238.487C375.007 239.795 375.505 241.051 376.391 241.976C377.278 242.901 378.48 243.421 379.734 243.421ZM379.734 296.053C380.987 296.053 382.19 295.533 383.076 294.607C383.962 293.682 384.461 292.427 384.461 291.118C384.461 289.81 383.962 288.555 383.076 287.629C382.19 286.704 380.987 286.184 379.734 286.184C378.48 286.184 377.278 286.704 376.391 287.629C375.505 288.555 375.007 289.81 375.007 291.118C375.007 292.427 375.505 293.682 376.391 294.607C377.278 295.533 378.48 296.053 379.734 296.053ZM404.944 243.421C406.198 243.421 407.4 242.901 408.287 241.976C409.173 241.051 409.671 239.795 409.671 238.487C409.671 237.178 409.173 235.923 408.287 234.998C407.4 234.072 406.198 233.553 404.944 233.553C403.69 233.553 402.488 234.072 401.602 234.998C400.715 235.923 400.217 237.178 400.217 238.487C400.217 239.795 400.715 241.051 401.602 241.976C402.488 242.901 403.69 243.421 404.944 243.421ZM430.155 217.105C431.408 217.105 432.611 216.585 433.497 215.66C434.384 214.735 434.882 213.48 434.882 212.171C434.882 210.862 434.384 209.607 433.497 208.682C432.611 207.757 431.408 207.237 430.155 207.237C428.901 207.237 427.699 207.757 426.812 208.682C425.926 209.607 425.428 210.862 425.428 212.171C425.428 213.48 425.926 214.735 426.812 215.66C427.699 216.585 428.901 217.105 430.155 217.105ZM278.891 217.105C280.145 217.105 281.347 216.585 282.234 215.66C283.12 214.735 283.618 213.48 283.618 212.171C283.618 210.862 283.12 209.607 282.234 208.682C281.347 207.757 280.145 207.237 278.891 207.237C277.638 207.237 276.435 207.757 275.549 208.682C274.662 209.607 274.164 210.862 274.164 212.171C274.164 213.48 274.662 214.735 275.549 215.66C276.435 216.585 277.638 217.105 278.891 217.105ZM278.891 243.421C280.145 243.421 281.347 242.901 282.234 241.976C283.12 241.051 283.618 239.795 283.618 238.487C283.618 237.178 283.12 235.923 282.234 234.998C281.347 234.072 280.145 233.553 278.891 233.553C277.638 233.553 276.435 234.072 275.549 234.998C274.662 235.923 274.164 237.178 274.164 238.487C274.164 239.795 274.662 241.051 275.549 241.976C276.435 242.901 277.638 243.421 278.891 243.421ZM304.102 190.789C305.356 190.789 306.558 190.27 307.444 189.344C308.331 188.419 308.829 187.164 308.829 185.855C308.829 184.547 308.331 183.292 307.444 182.366C306.558 181.441 305.356 180.921 304.102 180.921C302.848 180.921 301.646 181.441 300.759 182.366C299.873 183.292 299.375 184.547 299.375 185.855C299.375 187.164 299.873 188.419 300.759 189.344C301.646 190.27 302.848 190.789 304.102 190.789ZM455.365 190.789C456.619 190.789 457.821 190.27 458.708 189.344C459.594 188.419 460.092 187.164 460.092 185.855C460.092 184.547 459.594 183.292 458.708 182.366C457.821 181.441 456.619 180.921 455.365 180.921C454.111 180.921 452.909 181.441 452.023 182.366C451.136 183.292 450.638 184.547 450.638 185.855C450.638 187.164 451.136 188.419 452.023 189.344C452.909 190.27 454.111 190.789 455.365 190.789ZM430.155 85.5263C431.408 85.5263 432.611 85.0065 433.497 84.0811C434.384 83.1558 434.882 81.9007 434.882 80.5921C434.882 79.2835 434.384 78.0284 433.497 77.1031C432.611 76.1778 431.408 75.6579 430.155 75.6579C428.901 75.6579 427.699 76.1778 426.812 77.1031C425.926 78.0284 425.428 79.2835 425.428 80.5921C425.428 81.9007 425.926 83.1558 426.812 84.0811C427.699 85.0065 428.901 85.5263 430.155 85.5263ZM455.365 59.2105C456.619 59.2105 457.821 58.6907 458.708 57.7653C459.594 56.84 460.092 55.585 460.092 54.2763C460.092 52.9677 459.594 51.7126 458.708 50.7873C457.821 49.862 456.619 49.3421 455.365 49.3421C454.111 49.3421 452.909 49.862 452.023 50.7873C451.136 51.7126 450.638 52.9677 450.638 54.2763C450.638 55.585 451.136 56.84 452.023 57.7653C452.909 58.6907 454.111 59.2105 455.365 59.2105ZM404.944 59.2105C406.198 59.2105 407.4 58.6907 408.287 57.7653C409.173 56.84 409.671 55.585 409.671 54.2763C409.671 52.9677 409.173 51.7126 408.287 50.7873C407.4 49.862 406.198 49.3421 404.944 49.3421C403.69 49.3421 402.488 49.862 401.602 50.7873C400.715 51.7126 400.217 52.9677 400.217 54.2763C400.217 55.585 400.715 56.84 401.602 57.7653C402.488 58.6907 403.69 59.2105 404.944 59.2105ZM404.944 32.8947C406.198 32.8947 407.4 32.3749 408.287 31.4495C409.173 30.5242 409.671 29.2692 409.671 27.9605C409.671 26.6519 409.173 25.3969 408.287 24.4715C407.4 23.5462 406.198 23.0263 404.944 23.0263C403.69 23.0263 402.488 23.5462 401.602 24.4715C400.715 25.3969 400.217 26.6519 400.217 27.9605C400.217 29.2692 400.715 30.5242 401.602 31.4495C402.488 32.3749 403.69 32.8947 404.944 32.8947ZM379.734 32.8947C380.987 32.8947 382.19 32.3749 383.076 31.4495C383.962 30.5242 384.461 29.2692 384.461 27.9605C384.461 26.6519 383.962 25.3969 383.076 24.4715C382.19 23.5462 380.987 23.0263 379.734 23.0263C378.48 23.0263 377.278 23.5462 376.391 24.4715C375.505 25.3969 375.007 26.6519 375.007 27.9605C375.007 29.2692 375.505 30.5242 376.391 31.4495C377.278 32.3749 378.48 32.8947 379.734 32.8947ZM354.523 32.8947C355.777 32.8947 356.979 32.3749 357.865 31.4495C358.752 30.5242 359.25 29.2692 359.25 27.9605C359.25 26.6519 358.752 25.3969 357.865 24.4715C356.979 23.5462 355.777 23.0263 354.523 23.0263C353.269 23.0263 352.067 23.5462 351.181 24.4715C350.294 25.3969 349.796 26.6519 349.796 27.9605C349.796 29.2692 350.294 30.5242 351.181 31.4495C352.067 32.3749 353.269 32.8947 354.523 32.8947ZM329.312 32.8947C330.566 32.8947 331.768 32.3749 332.655 31.4495C333.541 30.5242 334.039 29.2692 334.039 27.9605C334.039 26.6519 333.541 25.3969 332.655 24.4715C331.768 23.5462 330.566 23.0263 329.312 23.0263C328.059 23.0263 326.856 23.5462 325.97 24.4715C325.084 25.3969 324.586 26.6519 324.586 27.9605C324.586 29.2692 325.084 30.5242 325.97 31.4495C326.856 32.3749 328.059 32.8947 329.312 32.8947ZM77.2072 59.2105C78.4609 59.2105 79.6632 58.6907 80.5497 57.7653C81.4362 56.84 81.9342 55.585 81.9342 54.2763C81.9342 52.9677 81.4362 51.7126 80.5497 50.7873C79.6632 49.862 78.4609 49.3421 77.2072 49.3421C75.9536 49.3421 74.7512 49.862 73.8648 50.7873C72.9783 51.7126 72.4803 52.9677 72.4803 54.2763C72.4803 55.585 72.9783 56.84 73.8648 57.7653C74.7512 58.6907 75.9536 59.2105 77.2072 59.2105ZM26.7862 59.2105C28.0399 59.2105 29.2422 58.6907 30.1287 57.7653C31.0151 56.84 31.5132 55.585 31.5132 54.2763C31.5132 52.9677 31.0151 51.7126 30.1287 50.7873C29.2422 49.862 28.0399 49.3421 26.7862 49.3421C25.5325 49.3421 24.3302 49.862 23.4437 50.7873C22.5572 51.7126 22.0592 52.9677 22.0592 54.2763C22.0592 55.585 22.5572 56.84 23.4437 57.7653C24.3302 58.6907 25.5325 59.2105 26.7862 59.2105ZM77.2072 85.5263C78.4609 85.5263 79.6632 85.0065 80.5497 84.0811C81.4362 83.1558 81.9342 81.9007 81.9342 80.5921C81.9342 79.2835 81.4362 78.0284 80.5497 77.1031C79.6632 76.1778 78.4609 75.6579 77.2072 75.6579C75.9536 75.6579 74.7512 76.1778 73.8648 77.1031C72.9783 78.0284 72.4803 79.2835 72.4803 80.5921C72.4803 81.9007 72.9783 83.1558 73.8648 84.0811C74.7512 85.0065 75.9536 85.5263 77.2072 85.5263ZM51.9967 111.842C53.2504 111.842 54.4527 111.322 55.3392 110.397C56.2257 109.472 56.7237 108.217 56.7237 106.908C56.7237 105.599 56.2257 104.344 55.3392 103.419C54.4527 102.494 53.2504 101.974 51.9967 101.974C50.743 101.974 49.5407 102.494 48.6542 103.419C47.7678 104.344 47.2697 105.599 47.2697 106.908C47.2697 108.217 47.7678 109.472 48.6542 110.397C49.5407 111.322 50.743 111.842 51.9967 111.842ZM77.2072 32.8947C78.4609 32.8947 79.6632 32.3749 80.5497 31.4495C81.4362 30.5242 81.9342 29.2692 81.9342 27.9605C81.9342 26.6519 81.4362 25.3969 80.5497 24.4715C79.6632 23.5462 78.4609 23.0263 77.2072 23.0263C75.9536 23.0263 74.7512 23.5462 73.8648 24.4715C72.9783 25.3969 72.4803 26.6519 72.4803 27.9605C72.4803 29.2692 72.9783 30.5242 73.8648 31.4495C74.7512 32.3749 75.9536 32.8947 77.2072 32.8947ZM77.2072 427.632C78.4609 427.632 79.6632 427.112 80.5497 426.186C81.4362 425.261 81.9342 424.006 81.9342 422.697C81.9342 421.389 81.4362 420.134 80.5497 419.208C79.6632 418.283 78.4609 417.763 77.2072 417.763C75.9536 417.763 74.7512 418.283 73.8648 419.208C72.9783 420.134 72.4803 421.389 72.4803 422.697C72.4803 424.006 72.9783 425.261 73.8648 426.186C74.7512 427.112 75.9536 427.632 77.2072 427.632ZM102.418 480.263C103.671 480.263 104.874 479.743 105.76 478.818C106.647 477.893 107.145 476.638 107.145 475.329C107.145 474.02 106.647 472.765 105.76 471.84C104.874 470.915 103.671 470.395 102.418 470.395C101.164 470.395 99.9618 470.915 99.0753 471.84C98.1888 472.765 97.6908 474.02 97.6908 475.329C97.6908 476.638 98.1888 477.893 99.0753 478.818C99.9618 479.743 101.164 480.263 102.418 480.263ZM77.2072 375C78.4609 375 79.6632 374.48 80.5497 373.555C81.4362 372.629 81.9342 371.374 81.9342 370.066C81.9342 368.757 81.4362 367.502 80.5497 366.577C79.6632 365.651 78.4609 365.132 77.2072 365.132C75.9536 365.132 74.7512 365.651 73.8648 366.577C72.9783 367.502 72.4803 368.757 72.4803 370.066C72.4803 371.374 72.9783 372.629 73.8648 373.555C74.7512 374.48 75.9536 375 77.2072 375ZM77.2072 401.316C78.4609 401.316 79.6632 400.796 80.5497 399.871C81.4362 398.945 81.9342 397.69 81.9342 396.382C81.9342 395.073 81.4362 393.818 80.5497 392.893C79.6632 391.967 78.4609 391.447 77.2072 391.447C75.9536 391.447 74.7512 391.967 73.8648 392.893C72.9783 393.818 72.4803 395.073 72.4803 396.382C72.4803 397.69 72.9783 398.945 73.8648 399.871C74.7512 400.796 75.9536 401.316 77.2072 401.316ZM51.9967 348.684C53.2504 348.684 54.4527 348.164 55.3392 347.239C56.2257 346.314 56.7237 345.059 56.7237 343.75C56.7237 342.441 56.2257 341.186 55.3392 340.261C54.4527 339.336 53.2504 338.816 51.9967 338.816C50.743 338.816 49.5407 339.336 48.6542 340.261C47.7678 341.186 47.2697 342.441 47.2697 343.75C47.2697 345.059 47.7678 346.314 48.6542 347.239C49.5407 348.164 50.743 348.684 51.9967 348.684ZM178.049 59.2105C179.303 59.2105 180.505 58.6907 181.392 57.7653C182.278 56.84 182.776 55.585 182.776 54.2763C182.776 52.9677 182.278 51.7126 181.392 50.7873C180.505 49.862 179.303 49.3421 178.049 49.3421C176.796 49.3421 175.593 49.862 174.707 50.7873C173.82 51.7126 173.322 52.9677 173.322 54.2763C173.322 55.585 173.82 56.84 174.707 57.7653C175.593 58.6907 176.796 59.2105 178.049 59.2105ZM203.26 59.2105C204.514 59.2105 205.716 58.6907 206.602 57.7653C207.489 56.84 207.987 55.585 207.987 54.2763C207.987 52.9677 207.489 51.7126 206.602 50.7873C205.716 49.862 204.514 49.3421 203.26 49.3421C202.006 49.3421 200.804 49.862 199.917 50.7873C199.031 51.7126 198.533 52.9677 198.533 54.2763C198.533 55.585 199.031 56.84 199.917 57.7653C200.804 58.6907 202.006 59.2105 203.26 59.2105ZM178.049 32.8947C179.303 32.8947 180.505 32.3749 181.392 31.4495C182.278 30.5242 182.776 29.2692 182.776 27.9605C182.776 26.6519 182.278 25.3969 181.392 24.4715C180.505 23.5462 179.303 23.0263 178.049 23.0263C176.796 23.0263 175.593 23.5462 174.707 24.4715C173.82 25.3969 173.322 26.6519 173.322 27.9605C173.322 29.2692 173.82 30.5242 174.707 31.4495C175.593 32.3749 176.796 32.8947 178.049 32.8947ZM228.47 111.842C229.724 111.842 230.926 111.322 231.813 110.397C232.699 109.472 233.197 108.217 233.197 106.908C233.197 105.599 232.699 104.344 231.813 103.419C230.926 102.494 229.724 101.974 228.47 101.974C227.217 101.974 226.014 102.494 225.128 103.419C224.241 104.344 223.743 105.599 223.743 106.908C223.743 108.217 224.241 109.472 225.128 110.397C226.014 111.322 227.217 111.842 228.47 111.842ZM253.681 85.5263C254.935 85.5263 256.137 85.0065 257.023 84.0811C257.91 83.1558 258.408 81.9007 258.408 80.5921C258.408 79.2835 257.91 78.0284 257.023 77.1031C256.137 76.1778 254.935 75.6579 253.681 75.6579C252.427 75.6579 251.225 76.1778 250.338 77.1031C249.452 78.0284 248.954 79.2835 248.954 80.5921C248.954 81.9007 249.452 83.1558 250.338 84.0811C251.225 85.0065 252.427 85.5263 253.681 85.5263ZM253.681 32.8947C254.935 32.8947 256.137 32.3749 257.023 31.4495C257.91 30.5242 258.408 29.2692 258.408 27.9605C258.408 26.6519 257.91 25.3969 257.023 24.4715C256.137 23.5462 254.935 23.0263 253.681 23.0263C252.427 23.0263 251.225 23.5462 250.338 24.4715C249.452 25.3969 248.954 26.6519 248.954 27.9605C248.954 29.2692 249.452 30.5242 250.338 31.4495C251.225 32.3749 252.427 32.8947 253.681 32.8947ZM430.155 322.368C431.408 322.368 432.611 321.849 433.497 320.923C434.384 319.998 434.882 318.743 434.882 317.434C434.882 316.126 434.384 314.871 433.497 313.945C432.611 313.02 431.408 312.5 430.155 312.5C428.901 312.5 427.699 313.02 426.812 313.945C425.926 314.871 425.428 316.126 425.428 317.434C425.428 318.743 425.926 319.998 426.812 320.923C427.699 321.849 428.901 322.368 430.155 322.368ZM404.944 348.684C406.198 348.684 407.4 348.164 408.287 347.239C409.173 346.314 409.671 345.059 409.671 343.75C409.671 342.441 409.173 341.186 408.287 340.261C407.4 339.336 406.198 338.816 404.944 338.816C403.69 338.816 402.488 339.336 401.602 340.261C400.715 341.186 400.217 342.441 400.217 343.75C400.217 345.059 400.715 346.314 401.602 347.239C402.488 348.164 403.69 348.684 404.944 348.684ZM404.944 375C406.198 375 407.4 374.48 408.287 373.555C409.173 372.629 409.671 371.374 409.671 370.066C409.671 368.757 409.173 367.502 408.287 366.577C407.4 365.651 406.198 365.132 404.944 365.132C403.69 365.132 402.488 365.651 401.602 366.577C400.715 367.502 400.217 368.757 400.217 370.066C400.217 371.374 400.715 372.629 401.602 373.555C402.488 374.48 403.69 375 404.944 375ZM404.944 401.316C406.198 401.316 407.4 400.796 408.287 399.871C409.173 398.945 409.671 397.69 409.671 396.382C409.671 395.073 409.173 393.818 408.287 392.893C407.4 391.967 406.198 391.447 404.944 391.447C403.69 391.447 402.488 391.967 401.602 392.893C400.715 393.818 400.217 395.073 400.217 396.382C400.217 397.69 400.715 398.945 401.602 399.871C402.488 400.796 403.69 401.316 404.944 401.316ZM26.7862 296.053C28.0399 296.053 29.2422 295.533 30.1287 294.607C31.0151 293.682 31.5132 292.427 31.5132 291.118C31.5132 289.81 31.0151 288.555 30.1287 287.629C29.2422 286.704 28.0399 286.184 26.7862 286.184C25.5325 286.184 24.3302 286.704 23.4437 287.629C22.5572 288.555 22.0592 289.81 22.0592 291.118C22.0592 292.427 22.5572 293.682 23.4437 294.607C24.3302 295.533 25.5325 296.053 26.7862 296.053ZM26.7862 322.368C28.0399 322.368 29.2422 321.849 30.1287 320.923C31.0151 319.998 31.5132 318.743 31.5132 317.434C31.5132 316.126 31.0151 314.871 30.1287 313.945C29.2422 313.02 28.0399 312.5 26.7862 312.5C25.5325 312.5 24.3302 313.02 23.4437 313.945C22.5572 314.871 22.0592 316.126 22.0592 317.434C22.0592 318.743 22.5572 319.998 23.4437 320.923C24.3302 321.849 25.5325 322.368 26.7862 322.368ZM26.7862 269.737C28.0399 269.737 29.2422 269.217 30.1287 268.292C31.0151 267.366 31.5132 266.111 31.5132 264.803C31.5132 263.494 31.0151 262.239 30.1287 261.314C29.2422 260.388 28.0399 259.868 26.7862 259.868C25.5325 259.868 24.3302 260.388 23.4437 261.314C22.5572 262.239 22.0592 263.494 22.0592 264.803C22.0592 266.111 22.5572 267.366 23.4437 268.292C24.3302 269.217 25.5325 269.737 26.7862 269.737ZM51.9967 269.737C53.2504 269.737 54.4527 269.217 55.3392 268.292C56.2257 267.366 56.7237 266.111 56.7237 264.803C56.7237 263.494 56.2257 262.239 55.3392 261.314C54.4527 260.388 53.2504 259.868 51.9967 259.868C50.743 259.868 49.5407 260.388 48.6542 261.314C47.7678 262.239 47.2697 263.494 47.2697 264.803C47.2697 266.111 47.7678 267.366 48.6542 268.292C49.5407 269.217 50.743 269.737 51.9967 269.737ZM26.7862 138.158C28.0399 138.158 29.2422 137.638 30.1287 136.713C31.0151 135.787 31.5132 134.532 31.5132 133.224C31.5132 131.915 31.0151 130.66 30.1287 129.735C29.2422 128.809 28.0399 128.289 26.7862 128.289C25.5325 128.289 24.3302 128.809 23.4437 129.735C22.5572 130.66 22.0592 131.915 22.0592 133.224C22.0592 134.532 22.5572 135.787 23.4437 136.713C24.3302 137.638 25.5325 138.158 26.7862 138.158ZM77.2072 243.421C78.4609 243.421 79.6632 242.901 80.5497 241.976C81.4362 241.051 81.9342 239.795 81.9342 238.487C81.9342 237.178 81.4362 235.923 80.5497 234.998C79.6632 234.072 78.4609 233.553 77.2072 233.553C75.9536 233.553 74.7512 234.072 73.8648 234.998C72.9783 235.923 72.4803 237.178 72.4803 238.487C72.4803 239.795 72.9783 241.051 73.8648 241.976C74.7512 242.901 75.9536 243.421 77.2072 243.421ZM102.418 217.105C103.671 217.105 104.874 216.585 105.76 215.66C106.647 214.735 107.145 213.48 107.145 212.171C107.145 210.862 106.647 209.607 105.76 208.682C104.874 207.757 103.671 207.237 102.418 207.237C101.164 207.237 99.9618 207.757 99.0753 208.682C98.1888 209.607 97.6908 210.862 97.6908 212.171C97.6908 213.48 98.1888 214.735 99.0753 215.66C99.9618 216.585 101.164 217.105 102.418 217.105Z" fill="white"/>
</svg>
