<svg width="479" height="500" viewBox="0 0 479 500" fill="none" xmlns="http://www.w3.org/2000/svg"><path d="M69.487 368.421c.39-1.997 1.477-3.771 3.05-4.979a7.64 7.64 0 0 1 5.46-1.558c1.943.205 3.743 1.155 5.053 2.667a8.43 8.43 0 0 1 2.034 5.515 8.43 8.43 0 0 1-2.034 5.515c-1.31 1.512-3.11 2.462-5.052 2.667a7.64 7.64 0 0 1-5.462-1.559c-1.572-1.207-2.659-2.982-3.05-4.978H0v-3.29zm252.105 78.947c.39-1.996 1.477-3.771 3.05-4.978a7.64 7.64 0 0 1 5.461-1.559c1.942.205 3.743 1.155 5.052 2.667a8.43 8.43 0 0 1 2.034 5.515 8.43 8.43 0 0 1-2.034 5.515c-1.309 1.512-3.11 2.462-5.052 2.667a7.63 7.63 0 0 1-5.461-1.558c-1.573-1.208-2.66-2.982-3.05-4.979H129.204v-3.29zm91.073-75.657c-.391 1.996-1.478 3.771-3.05 4.978a7.64 7.64 0 0 1-5.461 1.559c-1.943-.205-3.743-1.155-5.052-2.667a8.43 8.43 0 0 1-2.035-5.515c0-2.038.725-4.004 2.035-5.515 1.309-1.512 3.109-2.462 5.052-2.667a7.64 7.64 0 0 1 5.461 1.558c1.572 1.208 2.659 2.982 3.05 4.979H479v3.29zm0 26.315c-.391 1.997-1.478 3.771-3.05 4.979a7.64 7.64 0 0 1-5.461 1.559c-1.943-.205-3.743-1.156-5.052-2.667a8.43 8.43 0 0 1-2.035-5.515c0-2.038.725-4.004 2.035-5.515 1.309-1.512 3.109-2.463 5.052-2.667a7.64 7.64 0 0 1 5.461 1.558c1.572 1.208 2.659 2.982 3.05 4.979H479v3.289zm9.769-187.5c.39-1.996 1.477-3.771 3.05-4.979a7.64 7.64 0 0 1 5.461-1.558c1.942.205 3.743 1.155 5.052 2.667a8.43 8.43 0 0 1 2.034 5.515 8.43 8.43 0 0 1-2.034 5.515c-1.309 1.512-3.11 2.462-5.052 2.667a7.63 7.63 0 0 1-5.461-1.558c-1.573-1.208-2.66-2.982-3.05-4.979H286.612c-.39 1.997-1.477 3.771-3.05 4.979a7.63 7.63 0 0 1-5.461 1.558c-1.942-.205-3.743-1.155-5.052-2.667a8.43 8.43 0 0 1-2.034-5.515c0-2.038.725-4.003 2.034-5.515s3.11-2.462 5.052-2.667a7.64 7.64 0 0 1 5.461 1.558c1.573 1.208 2.66 2.983 3.05 4.979zM19.065 131.579c.39-1.997 1.478-3.771 3.05-4.979a7.64 7.64 0 0 1 5.461-1.558c1.943.204 3.743 1.155 5.053 2.667a8.43 8.43 0 0 1 2.034 5.515 8.43 8.43 0 0 1-2.034 5.515c-1.31 1.511-3.11 2.462-5.053 2.667a7.64 7.64 0 0 1-5.46-1.559c-1.573-1.207-2.66-2.982-3.05-4.979H0v-3.289zM311.823 187.5c-.391 1.997-1.478 3.771-3.05 4.979a7.64 7.64 0 0 1-5.461 1.558c-1.943-.205-3.743-1.155-5.052-2.667a8.43 8.43 0 0 1-2.035-5.515c0-2.038.725-4.003 2.035-5.515 1.309-1.512 3.109-2.462 5.052-2.667a7.64 7.64 0 0 1 5.461 1.559c1.572 1.207 2.659 2.982 3.05 4.979h135.821c.391-1.997 1.478-3.772 3.05-4.979a7.64 7.64 0 0 1 5.461-1.559c1.943.205 3.743 1.155 5.053 2.667a8.43 8.43 0 0 1 2.034 5.515 8.43 8.43 0 0 1-2.034 5.515c-1.31 1.512-3.11 2.462-5.053 2.667a7.64 7.64 0 0 1-5.461-1.558c-1.572-1.208-2.659-2.982-3.05-4.979zM406.52 19.901c1.913.408 3.612 1.542 4.77 3.184a8.5 8.5 0 0 1 1.492 5.7c-.196 2.028-1.106 3.907-2.555 5.274a7.7 7.7 0 0 1-5.283 2.124 7.7 7.7 0 0 1-5.283-2.124c-1.449-1.367-2.359-3.246-2.555-5.274a8.48 8.48 0 0 1 1.493-5.7c1.157-1.642 2.856-2.776 4.769-3.184V0h3.152zM305.678 362.007c1.913.407 3.612 1.542 4.769 3.183a8.48 8.48 0 0 1 1.493 5.701c-.196 2.027-1.106 3.907-2.555 5.273a7.7 7.7 0 0 1-5.283 2.124 7.7 7.7 0 0 1-5.283-2.124c-1.449-1.366-2.359-3.246-2.555-5.273a8.5 8.5 0 0 1 1.492-5.701c1.158-1.641 2.857-2.776 4.77-3.183v-89.145c-1.913-.408-3.612-1.542-4.77-3.184a8.5 8.5 0 0 1-1.492-5.7c.196-2.028 1.106-3.907 2.555-5.274a7.7 7.7 0 0 1 5.283-2.123c1.952 0 3.835.756 5.283 2.123s2.359 3.246 2.555 5.274a8.48 8.48 0 0 1-1.493 5.7c-1.157 1.642-2.856 2.776-4.769 3.184zM381.309 36.02v95.559H479v3.289H378.158V36.02c-1.913-.408-3.613-1.542-4.77-3.184a8.5 8.5 0 0 1-1.493-5.7c.196-2.028 1.107-3.907 2.555-5.274a7.7 7.7 0 0 1 5.284-2.123c1.952 0 3.835.756 5.283 2.123s2.359 3.246 2.555 5.274a8.5 8.5 0 0 1-1.493 5.7c-1.157 1.642-2.857 2.776-4.77 3.184m25.211 26.316v42.927H479v3.29h-75.632V62.336c-1.913-.408-3.612-1.543-4.769-3.184a8.48 8.48 0 0 1-1.493-5.7c.196-2.028 1.106-3.907 2.555-5.274a7.7 7.7 0 0 1 5.283-2.124c1.952 0 3.835.757 5.283 2.124s2.359 3.246 2.555 5.273a8.5 8.5 0 0 1-1.492 5.701c-1.158 1.641-2.857 2.776-4.77 3.184M204.836 220.23v121.875h25.21v19.902c1.913.407 3.613 1.542 4.77 3.183a8.5 8.5 0 0 1 1.493 5.701c-.196 2.027-1.107 3.907-2.555 5.273a7.7 7.7 0 0 1-5.284 2.124 7.7 7.7 0 0 1-5.283-2.124c-1.448-1.366-2.359-3.246-2.555-5.273a8.5 8.5 0 0 1 1.493-5.701c1.157-1.641 2.857-2.776 4.77-3.183v-16.612h-25.211V220.23c-1.913-.407-3.613-1.542-4.77-3.183a8.5 8.5 0 0 1-1.493-5.701c.197-2.027 1.107-3.907 2.555-5.274a7.7 7.7 0 0 1 5.284-2.123c1.952 0 3.835.757 5.283 2.123s2.359 3.247 2.555 5.274a8.5 8.5 0 0 1-1.493 5.701c-1.157 1.641-2.857 2.776-4.769 3.183m-9.297-36.019c.391-1.997 1.477-3.772 3.05-4.979a7.64 7.64 0 0 1 5.461-1.559c1.943.205 3.743 1.155 5.052 2.667a8.43 8.43 0 0 1 2.035 5.515 8.43 8.43 0 0 1-2.035 5.515c-1.309 1.512-3.109 2.462-5.052 2.667a7.64 7.64 0 0 1-5.461-1.558c-1.573-1.208-2.659-2.982-3.05-4.979h-15.914v78.947h-44.276c-.39 1.997-1.477 3.771-3.05 4.979a7.64 7.64 0 0 1-5.461 1.559c-1.942-.205-3.743-1.156-5.052-2.667a8.43 8.43 0 0 1-2.034-5.515 8.43 8.43 0 0 1 2.034-5.515c1.309-1.512 3.11-2.463 5.052-2.667a7.63 7.63 0 0 1 5.461 1.558c1.573 1.208 2.66 2.982 3.05 4.979h41.125v-78.947zm-9.769 213.815c-.39 1.997-1.477 3.771-3.05 4.979a7.64 7.64 0 0 1-5.461 1.559c-1.942-.205-3.743-1.156-5.052-2.667a8.43 8.43 0 0 1-2.034-5.515 8.43 8.43 0 0 1 2.034-5.515c1.309-1.512 3.11-2.463 5.052-2.667a7.63 7.63 0 0 1 5.461 1.558c1.573 1.208 2.66 2.982 3.05 4.979h91.546V272.862c-1.913-.408-3.613-1.542-4.77-3.184a8.5 8.5 0 0 1-1.493-5.7c.196-2.028 1.107-3.907 2.555-5.274a7.7 7.7 0 0 1 5.283-2.123c1.953 0 3.836.756 5.284 2.123s2.359 3.246 2.555 5.274a8.5 8.5 0 0 1-1.493 5.7c-1.157 1.642-2.857 2.776-4.77 3.184v125.164zm-25.21-105.263c-.391 1.997-1.478 3.771-3.05 4.979a7.64 7.64 0 0 1-5.461 1.558c-1.943-.204-3.743-1.155-5.053-2.667a8.43 8.43 0 0 1-2.034-5.515c0-2.038.725-4.003 2.034-5.515 1.31-1.511 3.11-2.462 5.053-2.667a7.64 7.64 0 0 1 5.461 1.559c1.572 1.208 2.659 2.982 3.05 4.979h19.065v78.947h15.914c.391-1.997 1.477-3.771 3.05-4.979a7.64 7.64 0 0 1 5.461-1.558c1.943.205 3.743 1.155 5.052 2.667a8.43 8.43 0 0 1 2.035 5.515 8.43 8.43 0 0 1-2.035 5.515c-1.309 1.512-3.109 2.462-5.052 2.667a7.64 7.64 0 0 1-5.461-1.559c-1.573-1.207-2.659-2.982-3.05-4.978h-19.065v-78.948zM103.993 467.27c1.913.407 3.613 1.542 4.77 3.183a8.5 8.5 0 0 1 1.493 5.701c-.196 2.027-1.107 3.907-2.555 5.274a7.7 7.7 0 0 1-5.283 2.123 7.7 7.7 0 0 1-5.284-2.123c-1.448-1.367-2.358-3.247-2.555-5.274a8.5 8.5 0 0 1 1.493-5.701c1.157-1.641 2.857-2.776 4.77-3.183v-16.612h-22.06V500h-3.15v-52.632h28.361zm268.02-177.796c.39-1.997 1.477-3.771 3.05-4.979a7.64 7.64 0 0 1 5.461-1.559c1.942.205 3.743 1.156 5.052 2.667a8.43 8.43 0 0 1 2.034 5.515 8.43 8.43 0 0 1-2.034 5.515c-1.309 1.512-3.11 2.463-5.052 2.667a7.63 7.63 0 0 1-5.461-1.558c-1.573-1.208-2.66-2.982-3.05-4.979h-15.914v154.605h75.631V500h-3.151v-49.342h-75.632V289.474zm40.652-49.342c-.391 1.996-1.478 3.771-3.05 4.979a7.64 7.64 0 0 1-5.461 1.558c-1.943-.205-3.743-1.155-5.052-2.667a8.43 8.43 0 0 1-2.035-5.515c0-2.038.725-4.003 2.035-5.515 1.309-1.512 3.109-2.462 5.052-2.667a7.64 7.64 0 0 1 5.461 1.558c1.572 1.208 2.659 2.982 3.05 4.979h19.065v72.533c1.913.408 3.613 1.542 4.77 3.184a8.5 8.5 0 0 1 1.493 5.7c-.196 2.028-1.107 3.907-2.555 5.274a7.7 7.7 0 0 1-5.283 2.123 7.7 7.7 0 0 1-5.284-2.123c-1.448-1.367-2.359-3.246-2.555-5.274a8.5 8.5 0 0 1 1.493-5.7c1.157-1.642 2.857-2.776 4.77-3.184v-69.243zM311.823 398.026c-.391 1.997-1.478 3.771-3.05 4.979a7.64 7.64 0 0 1-5.461 1.559c-1.943-.205-3.743-1.156-5.052-2.667a8.43 8.43 0 0 1-2.035-5.515c0-2.038.725-4.004 2.035-5.515 1.309-1.512 3.109-2.463 5.052-2.667a7.64 7.64 0 0 1 5.461 1.558c1.572 1.208 2.659 2.982 3.05 4.979h15.914V263.158h25.21v-23.026h-66.335c-.39 1.996-1.477 3.771-3.05 4.979a7.64 7.64 0 0 1-5.461 1.558c-1.942-.205-3.743-1.155-5.052-2.667a8.43 8.43 0 0 1-2.034-5.515c0-2.038.725-4.003 2.034-5.515s3.11-2.462 5.052-2.667a7.63 7.63 0 0 1 5.461 1.558c1.573 1.208 2.66 2.982 3.05 4.979h69.487v29.605h-25.211v131.579zM447.644 52.632c.391-1.997 1.478-3.771 3.05-4.98a7.64 7.64 0 0 1 5.461-1.558c1.943.205 3.743 1.155 5.053 2.667a8.43 8.43 0 0 1 2.034 5.515 8.43 8.43 0 0 1-2.034 5.515c-1.31 1.512-3.11 2.463-5.053 2.667a7.64 7.64 0 0 1-5.461-1.558c-1.572-1.208-2.659-2.982-3.05-4.979h-19.065V0h3.151v52.632zm-293.23 114.967v72.533H84.928c-.39 1.996-1.477 3.771-3.05 4.979a7.64 7.64 0 0 1-5.461 1.558c-1.942-.205-3.743-1.155-5.052-2.667a8.43 8.43 0 0 1-2.034-5.515 8.43 8.43 0 0 1 2.034-5.515c1.31-1.512 3.11-2.462 5.052-2.667a7.64 7.64 0 0 1 5.461 1.558c1.573 1.208 2.66 2.982 3.05 4.979h66.335v-69.243c-1.913-.408-3.613-1.542-4.77-3.184a8.5 8.5 0 0 1-1.493-5.7c.197-2.028 1.107-3.907 2.555-5.274s3.331-2.124 5.284-2.124 3.835.757 5.283 2.124 2.359 3.246 2.555 5.274a8.5 8.5 0 0 1-1.493 5.7c-1.157 1.642-2.857 2.776-4.77 3.184M84.928 55.921c-.39 1.997-1.477 3.771-3.05 4.979a7.64 7.64 0 0 1-5.461 1.558c-1.942-.204-3.743-1.155-5.052-2.667a8.43 8.43 0 0 1-2.034-5.515 8.43 8.43 0 0 1 2.034-5.515c1.31-1.512 3.11-2.462 5.052-2.667a7.64 7.64 0 0 1 5.461 1.559c1.573 1.208 2.66 2.982 3.05 4.979h41.125V0h3.151v55.921zm94.697 6.415v46.217h-50.421v105.263h-19.066c-.39 1.997-1.477 3.771-3.049 4.979a7.64 7.64 0 0 1-5.461 1.558c-1.943-.205-3.743-1.155-5.053-2.667a8.43 8.43 0 0 1-2.034-5.515 8.43 8.43 0 0 1 2.034-5.515c1.31-1.512 3.11-2.462 5.053-2.667a7.64 7.64 0 0 1 5.461 1.558c1.572 1.208 2.659 2.983 3.049 4.979h15.915V105.263h50.421V62.336c-1.913-.408-3.613-1.543-4.77-3.184a8.5 8.5 0 0 1-1.493-5.7c.196-2.028 1.107-3.907 2.555-5.274a7.7 7.7 0 0 1 5.283-2.124c1.953 0 3.836.757 5.284 2.124s2.358 3.246 2.555 5.273a8.5 8.5 0 0 1-1.493 5.701c-1.157 1.641-2.857 2.776-4.77 3.184m-19.065 72.532c-.391 1.997-1.478 3.772-3.05 4.979a7.64 7.64 0 0 1-5.461 1.559c-1.943-.205-3.743-1.156-5.053-2.667a8.43 8.43 0 0 1-2.034-5.515 8.43 8.43 0 0 1 2.034-5.515c1.31-1.512 3.11-2.463 5.053-2.667a7.64 7.64 0 0 1 5.461 1.558c1.572 1.208 2.659 2.982 3.05 4.979h41.124V62.335c-1.913-.407-3.613-1.542-4.77-3.183a8.5 8.5 0 0 1-1.493-5.7c.197-2.028 1.107-3.907 2.555-5.274a7.7 7.7 0 0 1 5.284-2.124c1.952 0 3.835.757 5.283 2.124s2.359 3.246 2.555 5.273a8.5 8.5 0 0 1-1.493 5.701c-1.157 1.641-2.857 2.776-4.769 3.184v72.532zm25.21-105.263c-.39 1.997-1.477 3.771-3.05 4.98a7.64 7.64 0 0 1-5.461 1.558c-1.942-.205-3.743-1.156-5.052-2.667a8.43 8.43 0 0 1-2.034-5.515c0-2.038.725-4.004 2.034-5.515s3.11-2.463 5.052-2.668a7.64 7.64 0 0 1 5.461 1.559c1.573 1.208 2.66 2.982 3.05 4.979h44.276v72.533c1.913.407 3.613 1.542 4.77 3.183a8.5 8.5 0 0 1 1.493 5.701c-.196 2.027-1.107 3.907-2.555 5.273a7.7 7.7 0 0 1-5.284 2.124 7.7 7.7 0 0 1-5.283-2.124c-1.448-1.366-2.359-3.246-2.555-5.273a8.5 8.5 0 0 1 1.493-5.701c1.157-1.641 2.857-2.776 4.77-3.183V29.605zm161.032 444.079c.391-1.997 1.478-3.771 3.05-4.979a7.64 7.64 0 0 1 5.461-1.558c1.943.205 3.743 1.155 5.052 2.667a8.43 8.43 0 0 1 2.035 5.515 8.43 8.43 0 0 1-2.035 5.515c-1.309 1.512-3.109 2.462-5.052 2.667a7.64 7.64 0 0 1-5.461-1.558c-1.572-1.208-2.659-2.983-3.05-4.979H154.414V500h-3.151v-26.316zm34.507-227.138v16.612h25.211v55.921h-25.211v101.974h75.632V500h-3.152v-75.658h-75.631V315.789h25.21v-49.342h-25.21v-19.901c-1.913-.408-3.613-1.542-4.77-3.183a8.5 8.5 0 0 1-1.493-5.701c.196-2.028 1.107-3.907 2.555-5.274a7.7 7.7 0 0 1 5.284-2.123c1.952 0 3.835.757 5.283 2.123s2.359 3.246 2.555 5.274a8.5 8.5 0 0 1-1.493 5.701c-1.157 1.641-2.857 2.775-4.77 3.183M84.928 29.606c-.39 1.996-1.477 3.77-3.05 4.978a7.64 7.64 0 0 1-5.461 1.559c-1.942-.205-3.743-1.156-5.052-2.667a8.43 8.43 0 0 1-2.034-5.515 8.43 8.43 0 0 1 2.034-5.515c1.31-1.512 3.11-2.463 5.052-2.668a7.64 7.64 0 0 1 5.461 1.559c1.573 1.208 2.66 2.982 3.05 4.979h15.914V3.289h-25.21V0h28.361v29.605zm176.474 52.63c-.391 1.998-1.478 3.772-3.05 4.98a7.64 7.64 0 0 1-5.461 1.558c-1.943-.205-3.743-1.155-5.053-2.667a8.43 8.43 0 0 1-2.034-5.515c0-2.038.725-4.003 2.034-5.515 1.31-1.512 3.11-2.462 5.053-2.667a7.64 7.64 0 0 1 5.461 1.558c1.572 1.208 2.659 2.983 3.05 4.98h41.124V0h78.783v3.29h-75.631v78.947zM185.77 3.29a8.4 8.4 0 0 1-1.191 2.96 8.1 8.1 0 0 1-2.184 2.257 7.7 7.7 0 0 1-2.847 1.214 7.6 7.6 0 0 1-3.074-.016 7.7 7.7 0 0 1-2.835-1.243 8 8 0 0 1-2.163-2.28A8.52 8.52 0 0 1 170.329 0h3.261a5.1 5.1 0 0 0-.222 2.321 5.06 5.06 0 0 0 .824 2.168 4.8 4.8 0 0 0 1.686 1.531 4.6 4.6 0 0 0 2.171.552c.756 0 1.501-.19 2.172-.552a4.8 4.8 0 0 0 1.686-1.53 5.1 5.1 0 0 0 .824-2.169A5.15 5.15 0 0 0 182.508 0h97.959v55.921h-28.362V36.02c-1.913-.408-3.612-1.542-4.77-3.184a8.5 8.5 0 0 1-1.492-5.7c.196-2.028 1.106-3.907 2.554-5.274a7.7 7.7 0 0 1 5.284-2.123c1.952 0 3.835.756 5.283 2.123s2.359 3.246 2.555 5.274a8.48 8.48 0 0 1-1.493 5.7c-1.157 1.642-2.857 2.776-4.769 3.184v16.612h22.059V3.289zm0 157.895c-.39 1.997-1.477 3.771-3.05 4.979a7.64 7.64 0 0 1-5.461 1.559c-1.942-.205-3.743-1.156-5.052-2.667a8.43 8.43 0 0 1-2.034-5.516c0-2.037.725-4.003 2.034-5.515s3.11-2.462 5.052-2.667a7.64 7.64 0 0 1 5.461 1.559c1.573 1.208 2.66 2.982 3.05 4.979h30.095l50.421-52.632h61.451V36.02c-1.913-.408-3.613-1.542-4.77-3.184a8.5 8.5 0 0 1-1.493-5.7c.196-2.028 1.107-3.907 2.555-5.274a7.7 7.7 0 0 1 5.283-2.123c1.953 0 3.836.756 5.284 2.123s2.359 3.246 2.555 5.274a8.5 8.5 0 0 1-1.493 5.7c-1.157 1.642-2.857 2.776-4.77 3.184v72.533h-63.294l-50.421 52.631zm44.276 148.191c1.913.408 3.613 1.542 4.77 3.184a8.5 8.5 0 0 1 1.493 5.7c-.196 2.028-1.107 3.907-2.555 5.274a7.7 7.7 0 0 1-5.284 2.123 7.7 7.7 0 0 1-5.283-2.123c-1.448-1.367-2.359-3.246-2.555-5.274a8.5 8.5 0 0 1 1.493-5.7c1.157-1.642 2.857-2.776 4.77-3.184v-125.84l49.775-51.957h76.277v-95.56c-1.913-.407-3.612-1.541-4.769-3.183a8.48 8.48 0 0 1-1.493-5.7c.196-2.028 1.106-3.907 2.555-5.274a7.7 7.7 0 0 1 5.283-2.123c1.952 0 3.835.756 5.283 2.123s2.359 3.246 2.555 5.274a8.48 8.48 0 0 1-1.493 5.7c-1.157 1.642-2.856 2.776-4.769 3.184v98.848h-78.137l-47.916 50.017zm25.211 52.632c1.912.407 3.612 1.542 4.769 3.183a8.48 8.48 0 0 1 1.493 5.701c-.196 2.027-1.106 3.907-2.555 5.273a7.7 7.7 0 0 1-5.283 2.124 7.7 7.7 0 0 1-5.284-2.124c-1.448-1.366-2.358-3.246-2.554-5.273a8.5 8.5 0 0 1 1.492-5.701c1.158-1.641 2.857-2.776 4.77-3.183V198.339l38.746-40.444h182.004a8.34 8.34 0 0 1 2.149-4.172A7.8 7.8 0 0 1 479 151.48v3.405a4.76 4.76 0 0 0-2.289 1.803 5.1 5.1 0 0 0-.869 2.851c0 1.022.303 2.019.869 2.852a4.76 4.76 0 0 0 2.289 1.803v3.405a7.8 7.8 0 0 1-3.996-2.243 8.34 8.34 0 0 1-2.149-4.172H292.143l-36.886 38.504zM28.362 256.743c1.913.408 3.613 1.543 4.77 3.184a8.5 8.5 0 0 1 1.493 5.701c-.197 2.027-1.107 3.906-2.555 5.273a7.7 7.7 0 0 1-5.284 2.124 7.7 7.7 0 0 1-5.283-2.124c-1.448-1.367-2.359-3.246-2.555-5.273a8.5 8.5 0 0 1 1.493-5.701c1.157-1.641 2.857-2.776 4.77-3.184v-5.773l75.631-78.947V78.947h50.421V0h3.151v82.237h-50.421v91.135l-75.631 78.947zm50.42-168.092v71.563l-75.63 78.947v102.944h41.124c.39-1.997 1.477-3.771 3.05-4.979a7.64 7.64 0 0 1 5.46-1.558c1.943.205 3.744 1.155 5.053 2.667a8.43 8.43 0 0 1 2.034 5.515 8.43 8.43 0 0 1-2.034 5.515c-1.31 1.512-3.11 2.462-5.052 2.667a7.64 7.64 0 0 1-5.461-1.558c-1.573-1.208-2.66-2.982-3.05-4.979H0V237.813l75.632-78.948V88.651c-1.913-.407-3.613-1.542-4.77-3.183a8.5 8.5 0 0 1-1.493-5.7c.196-2.028 1.107-3.908 2.555-5.275a7.7 7.7 0 0 1 5.283-2.123c1.953 0 3.835.757 5.284 2.123s2.358 3.247 2.555 5.274a8.5 8.5 0 0 1-1.493 5.7c-1.157 1.642-2.857 2.777-4.77 3.184m-25.21 26.316v32.089L0 202.977v-4.638l50.421-52.632v-30.74c-1.913-.407-3.613-1.542-4.77-3.183a8.5 8.5 0 0 1-1.493-5.701c.197-2.028 1.107-3.907 2.555-5.274a7.7 7.7 0 0 1 5.284-2.123c1.952 0 3.835.757 5.283 2.123s2.359 3.246 2.555 5.274a8.5 8.5 0 0 1-1.493 5.701c-1.157 1.641-2.857 2.776-4.77 3.183M19.066 52.632c.39-1.997 1.477-3.771 3.05-4.98a7.64 7.64 0 0 1 5.46-1.558c1.943.205 3.743 1.155 5.053 2.667a8.43 8.43 0 0 1 2.034 5.515 8.43 8.43 0 0 1-2.034 5.515c-1.31 1.512-3.11 2.463-5.053 2.667a7.64 7.64 0 0 1-5.46-1.558c-1.573-1.208-2.66-2.982-3.05-4.979h-4.24L0 71.398v-4.622l13.535-14.144zm418.809 29.605c-.39 1.997-1.477 3.77-3.05 4.979a7.64 7.64 0 0 1-5.461 1.558c-1.942-.205-3.743-1.155-5.052-2.667a8.43 8.43 0 0 1-2.034-5.515c0-2.038.725-4.003 2.034-5.515s3.11-2.462 5.052-2.667a7.64 7.64 0 0 1 5.461 1.558c1.573 1.208 2.66 2.983 3.05 4.98h29.449L479 66.76v4.638l-10.384 10.839zm-25.21 263.158c-.391 1.997-1.478 3.771-3.05 4.979a7.64 7.64 0 0 1-5.461 1.558c-1.943-.205-3.743-1.155-5.052-2.667a8.43 8.43 0 0 1-2.035-5.515c0-2.038.725-4.003 2.035-5.515 1.309-1.512 3.109-2.462 5.052-2.667a7.64 7.64 0 0 1 5.461 1.558c1.572 1.208 2.659 2.982 3.05 4.979h41.124v-117.45L479 198.339v4.638l-22.059 23.026v119.392zM84.928 398.026c-.39 1.997-1.477 3.771-3.05 4.979a7.64 7.64 0 0 1-5.461 1.559c-1.942-.205-3.743-1.156-5.052-2.667a8.43 8.43 0 0 1-2.034-5.515c0-2.038.724-4.004 2.034-5.515s3.11-2.463 5.052-2.667a7.64 7.64 0 0 1 5.461 1.558c1.573 1.208 2.66 2.982 3.05 4.979h15.914v-37.155l-36.886-38.503h-29.45c-.39 1.997-1.476 3.771-3.049 4.979a7.64 7.64 0 0 1-5.461 1.558c-1.942-.205-3.743-1.155-5.052-2.667a8.43 8.43 0 0 1-2.034-5.515 8.43 8.43 0 0 1 2.034-5.515c1.31-1.512 3.11-2.462 5.052-2.667a7.64 7.64 0 0 1 5.461 1.559c1.573 1.207 2.66 2.982 3.05 4.978h30.741l38.745 40.445v41.792zm236.664 23.027c.39-1.997 1.477-3.771 3.05-4.979a7.64 7.64 0 0 1 5.461-1.559c1.942.205 3.743 1.156 5.052 2.667a8.43 8.43 0 0 1 2.034 5.515 8.43 8.43 0 0 1-2.034 5.515c-1.309 1.512-3.11 2.463-5.052 2.667a7.63 7.63 0 0 1-5.461-1.558c-1.573-1.208-2.66-2.982-3.05-4.979H151.263V331.25l-62.08-64.803H59.716c-.39 1.997-1.477 3.771-3.05 4.979a7.64 7.64 0 0 1-5.46 1.559c-1.943-.205-3.743-1.156-5.053-2.667a8.43 8.43 0 0 1-2.034-5.515 8.43 8.43 0 0 1 2.034-5.515c1.31-1.512 3.11-2.463 5.052-2.667a7.64 7.64 0 0 1 5.462 1.558c1.572 1.208 2.659 2.982 3.05 4.979h30.725l63.971 66.776v91.119zm-236.664 3.289c-.39 1.997-1.477 3.771-3.05 4.979a7.64 7.64 0 0 1-5.461 1.558c-1.942-.204-3.743-1.155-5.052-2.667a8.43 8.43 0 0 1-2.034-5.515 8.43 8.43 0 0 1 2.034-5.515c1.31-1.511 3.11-2.462 5.052-2.667a7.64 7.64 0 0 1 5.461 1.559c1.573 1.208 2.66 2.982 3.05 4.979h41.125v-76.629l-49.492-51.661H34.507c-.39 1.997-1.477 3.771-3.05 4.979a7.64 7.64 0 0 1-5.461 1.558c-1.942-.204-3.743-1.155-5.052-2.667a8.43 8.43 0 0 1-2.034-5.515 8.43 8.43 0 0 1 2.034-5.515c1.31-1.511 3.11-2.462 5.052-2.667a7.64 7.64 0 0 1 5.461 1.559c1.573 1.208 2.66 2.982 3.05 4.979h43.346l51.351 53.602v81.266zM53.572 65.461v2.648l-38.745 40.444H0v-3.29h13.535L50.42 66.76V0h3.151zM3.152 493.586a7.8 7.8 0 0 1 3.996 2.242A8.34 8.34 0 0 1 9.296 500H6.035a5 5 0 0 0-.942-1.657 4.7 4.7 0 0 0-1.478-1.153 4.55 4.55 0 0 0-3.615-.2v-75.937h28.362V500H25.21v-75.658H3.15zm50.42-97.204V500h-3.15V398.026H0v-3.289h53.572zM26.786 29.605H0v-3.29h25.21V0h3.152v29.605zm430.155-3.29H479v3.29h-25.211V0h3.152zM406.52 475.33V500h-3.152v-23.026h-22.059V500h-3.151v-26.316h28.362zM0 151.48a7.6 7.6 0 0 1 3.456.086 7.8 7.8 0 0 1 3.091 1.617 8.2 8.2 0 0 1 2.136 2.838 8.6 8.6 0 0 1 .771 3.518 8.5 8.5 0 0 1-.76 3.526 8.2 8.2 0 0 1-2.135 2.846 7.8 7.8 0 0 1-3.097 1.615 7.55 7.55 0 0 1-3.462.073v-3.405a4.54 4.54 0 0 0 2.224.232 4.6 4.6 0 0 0 2.077-.86 4.9 4.9 0 0 0 1.466-1.76 5.1 5.1 0 0 0 .529-2.267c0-.788-.182-1.565-.529-2.266a4.9 4.9 0 0 0-1.466-1.76 4.6 4.6 0 0 0-2.077-.86 4.54 4.54 0 0 0-2.224.232zm126.053 295.888h3.151V500h-3.151zM185.77 500h-3.262a4.9 4.9 0 0 0-1.727-2.389 4.6 4.6 0 0 0-2.732-.908c-.978 0-1.933.317-2.732.908A4.9 4.9 0 0 0 173.59 500h-3.261a8.3 8.3 0 0 1 2.735-4.731 7.68 7.68 0 0 1 4.985-1.856c1.818 0 3.579.656 4.986 1.856A8.3 8.3 0 0 1 185.77 500M9.296 0a8.6 8.6 0 0 1-.19 4.004 8.3 8.3 0 0 1-1.975 3.44 7.85 7.85 0 0 1-3.295 2.061A7.6 7.6 0 0 1 0 9.704V6.299a4.53 4.53 0 0 0 2.622.162 4.7 4.7 0 0 0 2.3-1.323A5 5 0 0 0 6.19 2.737 5.14 5.14 0 0 0 6.035 0zm463.559 0h3.262a5.13 5.13 0 0 0 .191 3.773 4.9 4.9 0 0 0 1.105 1.543A4.7 4.7 0 0 0 479 6.3v3.405a7.7 7.7 0 0 1-2.835-1.243 8 8 0 0 1-2.163-2.28 8.4 8.4 0 0 1-1.163-2.972 8.6 8.6 0 0 1 .016-3.21M479 493.586v3.404a4.7 4.7 0 0 0-1.769 1.164 4.95 4.95 0 0 0-1.114 1.846h-3.262a8.34 8.34 0 0 1 2.149-4.172 7.8 7.8 0 0 1 3.996-2.242M152.839 164.474c.621 0 1.235-.128 1.809-.376a4.7 4.7 0 0 0 1.533-1.07 5 5 0 0 0 1.025-1.6 5.12 5.12 0 0 0 0-3.777 5 5 0 0 0-1.025-1.601 4.7 4.7 0 0 0-1.533-1.069 4.6 4.6 0 0 0-1.809-.376c-1.254 0-2.456.52-3.343 1.445a5.05 5.05 0 0 0-1.384 3.489c0 1.309.498 2.564 1.384 3.489a4.63 4.63 0 0 0 3.343 1.446m0-26.316c1.253 0 2.456-.52 3.342-1.445a5.05 5.05 0 0 0 1.385-3.489 5.04 5.04 0 0 0-1.385-3.489 4.63 4.63 0 0 0-3.342-1.446c-1.254 0-2.456.52-3.343 1.446a5.05 5.05 0 0 0-1.384 3.489 5.05 5.05 0 0 0 1.384 3.489 4.63 4.63 0 0 0 3.343 1.445m25.21 26.316c.621 0 1.236-.128 1.809-.376a4.7 4.7 0 0 0 1.534-1.07 4.9 4.9 0 0 0 1.024-1.6 5.12 5.12 0 0 0 0-3.777 5 5 0 0 0-1.024-1.601 4.7 4.7 0 0 0-1.534-1.069 4.6 4.6 0 0 0-1.809-.376c-1.253 0-2.456.52-3.342 1.445a5.05 5.05 0 0 0-1.385 3.489c0 1.309.498 2.564 1.385 3.489a4.63 4.63 0 0 0 3.342 1.446m25.211 26.315a4.62 4.62 0 0 0 3.342-1.445 5.04 5.04 0 0 0 1.385-3.489 5.05 5.05 0 0 0-1.385-3.489 4.63 4.63 0 0 0-3.342-1.445c-1.254 0-2.456.52-3.343 1.445a5.05 5.05 0 0 0-1.384 3.489c0 1.309.498 2.564 1.384 3.489a4.63 4.63 0 0 0 3.343 1.445m0 26.316c1.254 0 2.456-.52 3.342-1.445a5.04 5.04 0 0 0 1.385-3.489 5.04 5.04 0 0 0-1.385-3.489 4.63 4.63 0 0 0-3.342-1.445c-1.254 0-2.456.52-3.343 1.445a5.05 5.05 0 0 0-1.384 3.489c0 1.309.498 2.564 1.384 3.489a4.63 4.63 0 0 0 3.343 1.445m-75.632 52.632c1.254 0 2.456-.52 3.343-1.445a5.05 5.05 0 0 0 1.384-3.489 5.05 5.05 0 0 0-1.384-3.489 4.63 4.63 0 0 0-3.343-1.446c-1.253 0-2.456.52-3.342 1.446a5.04 5.04 0 0 0-1.385 3.489c0 1.308.498 2.563 1.385 3.489a4.63 4.63 0 0 0 3.342 1.445m25.211 26.316c1.253 0 2.456-.52 3.342-1.446a5.04 5.04 0 0 0 1.385-3.489 5.05 5.05 0 0 0-1.385-3.489 4.63 4.63 0 0 0-3.342-1.445c-1.254 0-2.456.52-3.343 1.445a5.05 5.05 0 0 0-1.384 3.489c0 1.309.498 2.564 1.384 3.489a4.63 4.63 0 0 0 3.343 1.446M203.26 375c1.254 0 2.456-.52 3.342-1.445a5.05 5.05 0 0 0 1.385-3.489 5.04 5.04 0 0 0-1.385-3.489 4.62 4.62 0 0 0-3.342-1.445 4.63 4.63 0 0 0-3.343 1.445 5.05 5.05 0 0 0-1.384 3.489 5.05 5.05 0 0 0 1.384 3.489A4.63 4.63 0 0 0 203.26 375m-25.211 26.316c1.254 0 2.456-.52 3.343-1.445a5.05 5.05 0 0 0 1.384-3.489 5.05 5.05 0 0 0-1.384-3.489 4.63 4.63 0 0 0-3.343-1.446c-1.253 0-2.456.52-3.342 1.446a5.04 5.04 0 0 0-1.385 3.489c0 1.308.498 2.563 1.385 3.489a4.63 4.63 0 0 0 3.342 1.445M228.47 375c1.254 0 2.456-.52 3.343-1.445a5.05 5.05 0 0 0 1.384-3.489 5.05 5.05 0 0 0-1.384-3.489 4.63 4.63 0 0 0-3.343-1.445 4.63 4.63 0 0 0-3.342 1.445 5.04 5.04 0 0 0-1.385 3.489c0 1.308.498 2.563 1.385 3.489A4.63 4.63 0 0 0 228.47 375m0-52.632a4.63 4.63 0 0 0 3.343-1.445 5.05 5.05 0 0 0 1.384-3.489 5.05 5.05 0 0 0-1.384-3.489 4.63 4.63 0 0 0-3.343-1.445c-1.253 0-2.456.52-3.342 1.445a5.05 5.05 0 0 0-1.385 3.489c0 1.309.498 2.564 1.385 3.489a4.63 4.63 0 0 0 3.342 1.445M253.681 375c1.254 0 2.456-.52 3.342-1.445a5.05 5.05 0 0 0 1.385-3.489 5.04 5.04 0 0 0-1.385-3.489 4.62 4.62 0 0 0-3.342-1.445 4.63 4.63 0 0 0-3.343 1.445 5.05 5.05 0 0 0-1.384 3.489 5.05 5.05 0 0 0 1.384 3.489 4.63 4.63 0 0 0 3.343 1.445m50.421 26.316c1.254 0 2.456-.52 3.342-1.445a5.05 5.05 0 0 0 1.385-3.489 5.04 5.04 0 0 0-1.385-3.489 4.62 4.62 0 0 0-3.342-1.446c-1.254 0-2.456.52-3.343 1.446a5.05 5.05 0 0 0-1.384 3.489 5.05 5.05 0 0 0 1.384 3.489 4.63 4.63 0 0 0 3.343 1.445m0-26.316c1.254 0 2.456-.52 3.342-1.445a5.05 5.05 0 0 0 1.385-3.489 5.04 5.04 0 0 0-1.385-3.489 4.62 4.62 0 0 0-3.342-1.445 4.63 4.63 0 0 0-3.343 1.445 5.05 5.05 0 0 0-1.384 3.489 5.05 5.05 0 0 0 1.384 3.489 4.63 4.63 0 0 0 3.343 1.445m-25.211-105.263c1.254 0 2.456-.52 3.343-1.445a5.05 5.05 0 0 0 1.384-3.489 5.05 5.05 0 0 0-1.384-3.489 4.63 4.63 0 0 0-3.343-1.446c-1.253 0-2.456.52-3.342 1.446a5.04 5.04 0 0 0-1.385 3.489c0 1.308.498 2.563 1.385 3.489a4.63 4.63 0 0 0 3.342 1.445m25.211 0c1.254 0 2.456-.52 3.342-1.445a5.05 5.05 0 0 0 1.385-3.489 5.04 5.04 0 0 0-1.385-3.489 4.62 4.62 0 0 0-3.342-1.446c-1.254 0-2.456.52-3.343 1.446a5.05 5.05 0 0 0-1.384 3.489 5.05 5.05 0 0 0 1.384 3.489 4.63 4.63 0 0 0 3.343 1.445m25.21 157.895c1.254 0 2.456-.52 3.343-1.446a5.05 5.05 0 0 0 1.384-3.489 5.05 5.05 0 0 0-1.384-3.489 4.63 4.63 0 0 0-3.343-1.445c-1.253 0-2.456.52-3.342 1.445a5.05 5.05 0 0 0-1.384 3.489c0 1.309.498 2.564 1.384 3.489a4.63 4.63 0 0 0 3.342 1.446m0 26.315a4.63 4.63 0 0 0 3.343-1.445 5.05 5.05 0 0 0 1.384-3.489 5.05 5.05 0 0 0-1.384-3.489 4.63 4.63 0 0 0-3.343-1.445c-1.253 0-2.456.52-3.342 1.445a5.05 5.05 0 0 0-1.384 3.489c0 1.309.498 2.564 1.384 3.489a4.63 4.63 0 0 0 3.342 1.445m25.211 26.316c1.254 0 2.456-.52 3.342-1.445a5.04 5.04 0 0 0 1.385-3.489 5.04 5.04 0 0 0-1.385-3.489 4.63 4.63 0 0 0-3.342-1.445c-1.254 0-2.456.52-3.342 1.445a5.04 5.04 0 0 0-1.385 3.489c0 1.309.498 2.564 1.385 3.489a4.63 4.63 0 0 0 3.342 1.445m25.211-236.842c1.253 0 2.456-.52 3.342-1.445a5.05 5.05 0 0 0 1.385-3.489 5.05 5.05 0 0 0-1.385-3.489 4.63 4.63 0 0 0-3.342-1.445 4.63 4.63 0 0 0-3.343 1.445 5.05 5.05 0 0 0-1.384 3.489c0 1.308.498 2.564 1.384 3.489a4.63 4.63 0 0 0 3.343 1.445m0 52.632c1.253 0 2.456-.52 3.342-1.446a5.05 5.05 0 0 0 1.385-3.489 5.05 5.05 0 0 0-1.385-3.489 4.63 4.63 0 0 0-3.342-1.445c-1.254 0-2.456.52-3.343 1.445a5.05 5.05 0 0 0-1.384 3.489c0 1.309.498 2.564 1.384 3.489a4.63 4.63 0 0 0 3.343 1.446m25.21-52.632c1.254 0 2.456-.52 3.343-1.445a5.05 5.05 0 0 0 1.384-3.489 5.05 5.05 0 0 0-1.384-3.489 4.63 4.63 0 0 0-3.343-1.445 4.62 4.62 0 0 0-3.342 1.445 5.04 5.04 0 0 0-1.385 3.489c0 1.308.498 2.564 1.385 3.489a4.63 4.63 0 0 0 3.342 1.445m25.211-26.316c1.253 0 2.456-.52 3.342-1.445a5.04 5.04 0 0 0 1.385-3.489 5.04 5.04 0 0 0-1.385-3.489 4.63 4.63 0 0 0-3.342-1.445c-1.254 0-2.456.52-3.343 1.445a5.05 5.05 0 0 0-1.384 3.489c0 1.309.498 2.564 1.384 3.489a4.63 4.63 0 0 0 3.343 1.445m-151.264 0c1.254 0 2.456-.52 3.343-1.445a5.05 5.05 0 0 0 1.384-3.489 5.05 5.05 0 0 0-1.384-3.489 4.63 4.63 0 0 0-3.343-1.445c-1.253 0-2.456.52-3.342 1.445a5.04 5.04 0 0 0-1.385 3.489c0 1.309.498 2.564 1.385 3.489a4.63 4.63 0 0 0 3.342 1.445m0 26.316c1.254 0 2.456-.52 3.343-1.445a5.05 5.05 0 0 0 1.384-3.489 5.05 5.05 0 0 0-1.384-3.489 4.63 4.63 0 0 0-3.343-1.445 4.63 4.63 0 0 0-3.342 1.445 5.04 5.04 0 0 0-1.385 3.489c0 1.308.498 2.564 1.385 3.489a4.63 4.63 0 0 0 3.342 1.445m25.211-52.632a4.62 4.62 0 0 0 3.342-1.445 5.04 5.04 0 0 0 1.385-3.489 5.05 5.05 0 0 0-1.385-3.489 4.63 4.63 0 0 0-3.342-1.445c-1.254 0-2.456.52-3.343 1.445a5.05 5.05 0 0 0-1.384 3.489c0 1.309.498 2.564 1.384 3.489a4.63 4.63 0 0 0 3.343 1.445m151.263 0a4.63 4.63 0 0 0 3.343-1.445 5.05 5.05 0 0 0 1.384-3.489 5.05 5.05 0 0 0-1.384-3.489 4.63 4.63 0 0 0-3.343-1.445c-1.254 0-2.456.52-3.342 1.445a5.05 5.05 0 0 0-1.385 3.489c0 1.309.498 2.564 1.385 3.489a4.62 4.62 0 0 0 3.342 1.445m-25.21-105.263c1.253 0 2.456-.52 3.342-1.445a5.04 5.04 0 0 0 1.385-3.489 5.04 5.04 0 0 0-1.385-3.489 4.63 4.63 0 0 0-3.342-1.445 4.63 4.63 0 0 0-3.343 1.445 5.05 5.05 0 0 0-1.384 3.49c0 1.308.498 2.563 1.384 3.488a4.63 4.63 0 0 0 3.343 1.445m25.21-26.315a4.63 4.63 0 0 0 3.343-1.446 5.05 5.05 0 0 0 1.384-3.489 5.05 5.05 0 0 0-1.384-3.489 4.63 4.63 0 0 0-3.343-1.445c-1.254 0-2.456.52-3.342 1.445a5.04 5.04 0 0 0-1.385 3.49c0 1.308.498 2.563 1.385 3.488a4.63 4.63 0 0 0 3.342 1.446m-50.421 0a4.63 4.63 0 0 0 3.343-1.446 5.05 5.05 0 0 0 1.384-3.489 5.05 5.05 0 0 0-1.384-3.489 4.63 4.63 0 0 0-3.343-1.445c-1.254 0-2.456.52-3.342 1.445a5.04 5.04 0 0 0-1.385 3.49c0 1.308.498 2.563 1.385 3.488a4.63 4.63 0 0 0 3.342 1.446m0-26.316a4.63 4.63 0 0 0 3.343-1.446 5.05 5.05 0 0 0 1.384-3.489 5.05 5.05 0 0 0-1.384-3.489 4.63 4.63 0 0 0-3.343-1.445c-1.254 0-2.456.52-3.342 1.445a5.04 5.04 0 0 0-1.385 3.49c0 1.308.498 2.563 1.385 3.489a4.63 4.63 0 0 0 3.342 1.445m-25.21 0c1.253 0 2.456-.52 3.342-1.446a5.05 5.05 0 0 0 1.385-3.489 5.05 5.05 0 0 0-1.385-3.489 4.63 4.63 0 0 0-3.342-1.445 4.63 4.63 0 0 0-3.343 1.445 5.05 5.05 0 0 0-1.384 3.49 5.05 5.05 0 0 0 1.384 3.489 4.63 4.63 0 0 0 3.343 1.445m-25.211 0c1.254 0 2.456-.52 3.342-1.446a5.04 5.04 0 0 0 1.385-3.489 5.04 5.04 0 0 0-1.385-3.489 4.63 4.63 0 0 0-3.342-1.445c-1.254 0-2.456.52-3.342 1.445a5.04 5.04 0 0 0-1.385 3.49c0 1.308.498 2.563 1.385 3.489a4.63 4.63 0 0 0 3.342 1.445m-25.211 0a4.63 4.63 0 0 0 3.343-1.446 5.05 5.05 0 0 0 1.384-3.489 5.05 5.05 0 0 0-1.384-3.489 4.63 4.63 0 0 0-3.343-1.445c-1.253 0-2.456.52-3.342 1.445a5.05 5.05 0 0 0-1.384 3.49 5.05 5.05 0 0 0 1.384 3.489 4.63 4.63 0 0 0 3.342 1.445M77.207 59.21c1.254 0 2.456-.52 3.343-1.446a5.05 5.05 0 0 0 1.384-3.489 5.05 5.05 0 0 0-1.384-3.489 4.63 4.63 0 0 0-3.343-1.445c-1.253 0-2.456.52-3.342 1.445a5.05 5.05 0 0 0-1.385 3.49c0 1.308.498 2.563 1.385 3.488a4.63 4.63 0 0 0 3.342 1.446m-50.42 0c1.253 0 2.455-.52 3.342-1.446a5.05 5.05 0 0 0 1.384-3.489 5.05 5.05 0 0 0-1.384-3.489 4.63 4.63 0 0 0-3.343-1.445c-1.254 0-2.456.52-3.342 1.445a5.05 5.05 0 0 0-1.385 3.49c0 1.308.498 2.563 1.385 3.488a4.63 4.63 0 0 0 3.342 1.446m50.42 26.315c1.254 0 2.456-.52 3.343-1.445a5.05 5.05 0 0 0 1.384-3.489 5.05 5.05 0 0 0-1.384-3.489 4.63 4.63 0 0 0-3.343-1.445c-1.253 0-2.456.52-3.342 1.445a5.05 5.05 0 0 0-1.385 3.49c0 1.308.498 2.563 1.385 3.488a4.63 4.63 0 0 0 3.342 1.445m-25.21 26.316a4.63 4.63 0 0 0 3.342-1.445 5.05 5.05 0 0 0 1.385-3.489 5.05 5.05 0 0 0-1.385-3.489 4.63 4.63 0 0 0-3.342-1.445 4.63 4.63 0 0 0-3.343 1.445 5.05 5.05 0 0 0-1.384 3.489c0 1.309.498 2.564 1.384 3.489a4.63 4.63 0 0 0 3.343 1.445m25.21-78.947c1.254 0 2.456-.52 3.343-1.446a5.05 5.05 0 0 0 1.384-3.489 5.05 5.05 0 0 0-1.384-3.489 4.63 4.63 0 0 0-3.343-1.445c-1.253 0-2.456.52-3.342 1.445a5.05 5.05 0 0 0-1.385 3.49c0 1.308.498 2.563 1.385 3.489a4.63 4.63 0 0 0 3.342 1.445m0 394.737c1.254 0 2.456-.52 3.343-1.446a5.05 5.05 0 0 0 1.384-3.489 5.05 5.05 0 0 0-1.384-3.489 4.63 4.63 0 0 0-3.343-1.445 4.63 4.63 0 0 0-3.342 1.445 5.05 5.05 0 0 0-1.385 3.489c0 1.309.498 2.564 1.385 3.489a4.63 4.63 0 0 0 3.342 1.446m25.211 52.631c1.253 0 2.456-.52 3.342-1.445a5.04 5.04 0 0 0 1.385-3.489 5.04 5.04 0 0 0-1.385-3.489 4.63 4.63 0 0 0-3.342-1.445 4.63 4.63 0 0 0-3.343 1.445 5.05 5.05 0 0 0-1.384 3.489c0 1.309.498 2.564 1.384 3.489a4.63 4.63 0 0 0 3.343 1.445M77.208 375a4.63 4.63 0 0 0 3.342-1.445 5.05 5.05 0 0 0 1.384-3.489 5.05 5.05 0 0 0-1.384-3.489 4.63 4.63 0 0 0-3.343-1.445 4.63 4.63 0 0 0-3.342 1.445 5.05 5.05 0 0 0-1.385 3.489c0 1.308.498 2.563 1.385 3.489A4.63 4.63 0 0 0 77.207 375m0 26.316a4.63 4.63 0 0 0 3.342-1.445 5.05 5.05 0 0 0 1.384-3.489 5.05 5.05 0 0 0-1.384-3.489 4.63 4.63 0 0 0-3.343-1.446c-1.253 0-2.456.52-3.342 1.446a5.05 5.05 0 0 0-1.385 3.489c0 1.308.498 2.563 1.385 3.489a4.63 4.63 0 0 0 3.342 1.445m-25.211-52.632a4.63 4.63 0 0 0 3.342-1.445 5.05 5.05 0 0 0 1.385-3.489 5.05 5.05 0 0 0-1.385-3.489 4.63 4.63 0 0 0-3.342-1.445 4.63 4.63 0 0 0-3.343 1.445 5.05 5.05 0 0 0-1.384 3.489c0 1.309.498 2.564 1.384 3.489a4.63 4.63 0 0 0 3.343 1.445M178.049 59.211a4.63 4.63 0 0 0 3.343-1.446 5.05 5.05 0 0 0 1.384-3.489 5.05 5.05 0 0 0-1.384-3.489 4.63 4.63 0 0 0-3.343-1.445c-1.253 0-2.456.52-3.342 1.445a5.04 5.04 0 0 0-1.385 3.49c0 1.308.498 2.563 1.385 3.488a4.63 4.63 0 0 0 3.342 1.446m25.211 0c1.254 0 2.456-.52 3.342-1.446a5.04 5.04 0 0 0 1.385-3.489 5.04 5.04 0 0 0-1.385-3.489 4.63 4.63 0 0 0-3.342-1.445 4.63 4.63 0 0 0-3.343 1.445 5.05 5.05 0 0 0-1.384 3.49c0 1.308.498 2.563 1.384 3.488a4.63 4.63 0 0 0 3.343 1.446m-25.211-26.316a4.63 4.63 0 0 0 3.343-1.446 5.05 5.05 0 0 0 1.384-3.489 5.05 5.05 0 0 0-1.384-3.489 4.63 4.63 0 0 0-3.343-1.445c-1.253 0-2.456.52-3.342 1.445a5.04 5.04 0 0 0-1.385 3.49c0 1.308.498 2.563 1.385 3.489a4.63 4.63 0 0 0 3.342 1.445m50.421 78.947c1.254 0 2.456-.52 3.343-1.445a5.05 5.05 0 0 0 1.384-3.489 5.05 5.05 0 0 0-1.384-3.489 4.63 4.63 0 0 0-3.343-1.445c-1.253 0-2.456.52-3.342 1.445a5.04 5.04 0 0 0-1.385 3.489c0 1.309.498 2.564 1.385 3.489a4.63 4.63 0 0 0 3.342 1.445m25.211-26.316c1.254 0 2.456-.52 3.342-1.445a5.04 5.04 0 0 0 1.385-3.489 5.04 5.04 0 0 0-1.385-3.489 4.63 4.63 0 0 0-3.342-1.445 4.63 4.63 0 0 0-3.343 1.445 5.05 5.05 0 0 0-1.384 3.49c0 1.308.498 2.563 1.384 3.488a4.63 4.63 0 0 0 3.343 1.445m0-52.631c1.254 0 2.456-.52 3.342-1.446a5.04 5.04 0 0 0 1.385-3.489 5.04 5.04 0 0 0-1.385-3.489 4.63 4.63 0 0 0-3.342-1.445 4.63 4.63 0 0 0-3.343 1.445 5.05 5.05 0 0 0-1.384 3.49 5.05 5.05 0 0 0 1.384 3.489 4.63 4.63 0 0 0 3.343 1.445m176.474 289.473a4.63 4.63 0 0 0 3.342-1.445 5.04 5.04 0 0 0 1.385-3.489 5.05 5.05 0 0 0-1.385-3.489 4.63 4.63 0 0 0-3.342-1.445c-1.254 0-2.456.52-3.343 1.445a5.05 5.05 0 0 0-1.384 3.489c0 1.309.498 2.564 1.384 3.489a4.63 4.63 0 0 0 3.343 1.445m-25.211 26.316c1.254 0 2.456-.52 3.343-1.445a5.05 5.05 0 0 0 1.384-3.489 5.05 5.05 0 0 0-1.384-3.489 4.63 4.63 0 0 0-3.343-1.445c-1.254 0-2.456.52-3.342 1.445a5.04 5.04 0 0 0-1.385 3.489c0 1.309.498 2.564 1.385 3.489a4.63 4.63 0 0 0 3.342 1.445m0 26.316c1.254 0 2.456-.52 3.343-1.445a5.05 5.05 0 0 0 1.384-3.489 5.05 5.05 0 0 0-1.384-3.489 4.63 4.63 0 0 0-3.343-1.445 4.62 4.62 0 0 0-3.342 1.445 5.04 5.04 0 0 0-1.385 3.489c0 1.308.498 2.563 1.385 3.489a4.63 4.63 0 0 0 3.342 1.445m0 26.316c1.254 0 2.456-.52 3.343-1.445a5.05 5.05 0 0 0 1.384-3.489 5.05 5.05 0 0 0-1.384-3.489 4.63 4.63 0 0 0-3.343-1.446c-1.254 0-2.456.52-3.342 1.446a5.04 5.04 0 0 0-1.385 3.489c0 1.308.498 2.563 1.385 3.489a4.63 4.63 0 0 0 3.342 1.445M26.786 296.053c1.254 0 2.456-.52 3.343-1.446a5.05 5.05 0 0 0 1.384-3.489 5.05 5.05 0 0 0-1.384-3.489 4.63 4.63 0 0 0-3.343-1.445 4.63 4.63 0 0 0-3.342 1.445 5.05 5.05 0 0 0-1.385 3.489c0 1.309.498 2.564 1.385 3.489a4.63 4.63 0 0 0 3.342 1.446m0 26.315a4.63 4.63 0 0 0 3.343-1.445 5.05 5.05 0 0 0 1.384-3.489 5.05 5.05 0 0 0-1.384-3.489 4.63 4.63 0 0 0-3.343-1.445 4.63 4.63 0 0 0-3.342 1.445 5.05 5.05 0 0 0-1.385 3.489c0 1.309.498 2.564 1.385 3.489a4.63 4.63 0 0 0 3.342 1.445m0-52.631a4.63 4.63 0 0 0 3.343-1.445 5.05 5.05 0 0 0 1.384-3.489 5.05 5.05 0 0 0-1.384-3.489 4.63 4.63 0 0 0-3.343-1.446c-1.254 0-2.456.52-3.342 1.446a5.05 5.05 0 0 0-1.385 3.489c0 1.308.498 2.563 1.385 3.489a4.63 4.63 0 0 0 3.342 1.445m25.21 0a4.63 4.63 0 0 0 3.343-1.445 5.05 5.05 0 0 0 1.385-3.489 5.05 5.05 0 0 0-1.385-3.489 4.63 4.63 0 0 0-3.342-1.446c-1.254 0-2.456.52-3.343 1.446a5.05 5.05 0 0 0-1.384 3.489 5.05 5.05 0 0 0 1.384 3.489 4.63 4.63 0 0 0 3.343 1.445m-25.21-131.579a4.63 4.63 0 0 0 3.343-1.445 5.05 5.05 0 0 0 1.384-3.489 5.05 5.05 0 0 0-1.384-3.489 4.63 4.63 0 0 0-3.343-1.446c-1.254 0-2.456.52-3.342 1.446a5.05 5.05 0 0 0-1.385 3.489c0 1.308.498 2.563 1.385 3.489a4.63 4.63 0 0 0 3.342 1.445m50.421 105.263a4.63 4.63 0 0 0 3.343-1.445 5.05 5.05 0 0 0 1.384-3.489 5.05 5.05 0 0 0-1.384-3.489 4.63 4.63 0 0 0-3.343-1.445 4.63 4.63 0 0 0-3.342 1.445 5.05 5.05 0 0 0-1.385 3.489c0 1.308.498 2.564 1.385 3.489a4.63 4.63 0 0 0 3.342 1.445m25.211-26.316c1.253 0 2.456-.52 3.342-1.445a5.04 5.04 0 0 0 1.385-3.489 5.04 5.04 0 0 0-1.385-3.489 4.63 4.63 0 0 0-3.342-1.445 4.63 4.63 0 0 0-3.343 1.445 5.05 5.05 0 0 0-1.384 3.489c0 1.309.498 2.564 1.384 3.489a4.63 4.63 0 0 0 3.343 1.445" fill="#fff"/></svg>